<svg width="687" height="169" viewBox="0 0 687 169" fill="none" xmlns="http://www.w3.org/2000/svg">
<path d="M79 130.5C79 148.601 62.853 164 42 164C21.147 164 5 148.601 5 130.5C5 112.399 21.147 97 42 97C62.853 97 79 112.399 79 130.5Z" fill="#F1FE00" stroke="black" stroke-width="10"/>
<path d="M682 130.5C682 148.601 665.853 164 645 164C624.147 164 608 148.601 608 130.5C608 112.399 624.147 97 645 97C665.853 97 682 112.399 682 130.5Z" fill="#F1FE00" stroke="black" stroke-width="10"/>
<path d="M228 77.5C228 95.6009 211.853 111 191 111C170.147 111 154 95.6009 154 77.5C154 59.3991 170.147 44 191 44C211.853 44 228 59.3991 228 77.5Z" fill="#F1FE00" stroke="black" stroke-width="10"/>
<path d="M383 38.5C383 56.6009 366.853 72 346 72C325.147 72 309 56.6009 309 38.5C309 20.3991 325.147 5 346 5C366.853 5 383 20.3991 383 38.5Z" fill="#F1FE00" stroke="black" stroke-width="10"/>
<path d="M541 76.5C541 94.6009 524.853 110 504 110C483.147 110 467 94.6009 467 76.5C467 58.3991 483.147 43 504 43C524.853 43 541 58.3991 541 76.5Z" fill="#F1FE00" stroke="black" stroke-width="10"/>
</svg>
