<svg width="1536" height="957" viewBox="0 0 1536 957" fill="none" xmlns="http://www.w3.org/2000/svg">
<g clip-path="url(#clip0_2033_8)">
<rect width="1536" height="957" rx="20" fill="#98DAF1"/>
<rect x="-113.5" y="573.5" width="1705" height="604" fill="#81CB71" stroke="black" stroke-width="5"/>
<path d="M128.328 99.75C128.328 114.857 112.763 128 92.3269 128C71.8904 128 56.3257 114.857 56.3257 99.75C56.3257 84.6431 71.8904 71.5 92.3269 71.5C112.763 71.5 128.328 84.6431 128.328 99.75Z" fill="#FFFDFD" stroke="black" stroke-width="5"/>
<path d="M176.715 114.998C176.715 130.105 161.15 143.248 140.714 143.248C120.277 143.248 104.712 130.105 104.712 114.998C104.712 99.891 120.277 86.7479 140.714 86.7479C161.15 86.7479 176.715 99.891 176.715 114.998Z" fill="#FFFDFD" stroke="black" stroke-width="5"/>
<path d="M222.5 146.002C222.5 161.109 206.935 174.252 186.499 174.252C166.062 174.252 150.498 161.109 150.498 146.002C150.498 130.895 166.062 117.752 186.499 117.752C206.935 117.752 222.5 130.895 222.5 146.002Z" fill="#FFFDFD" stroke="black" stroke-width="5"/>
<path d="M176.715 161.25C176.715 176.357 161.15 189.5 140.714 189.5C120.277 189.5 104.712 176.357 104.712 161.25C104.712 146.143 120.277 133 140.714 133C161.15 133 176.715 146.143 176.715 161.25Z" fill="#FFFDFD" stroke="black" stroke-width="5"/>
<path d="M120.003 161.25C120.003 176.357 104.439 189.5 84.0022 189.5C63.5656 189.5 48.001 176.357 48.001 161.25C48.001 146.143 63.5656 133 84.0022 133C104.439 133 120.003 146.143 120.003 161.25Z" fill="#FFFDFD" stroke="black" stroke-width="5"/>
<path d="M81.5024 130.246C81.5024 145.353 65.9377 158.496 45.5012 158.496C25.0647 158.496 9.5 145.353 9.5 130.246C9.5 115.139 25.0647 101.996 45.5012 101.996C65.9377 101.996 81.5024 115.139 81.5024 130.246Z" fill="#FFFDFD" stroke="black" stroke-width="5"/>
<ellipse cx="122.243" cy="144.986" rx="79.864" ry="31.7665" fill="white"/>
<ellipse cx="99.3508" cy="129.229" rx="79.864" ry="31.7665" fill="white"/>
<path d="M744.328 422.75C744.328 437.857 728.763 451 708.327 451C687.89 451 672.326 437.857 672.326 422.75C672.326 407.643 687.89 394.5 708.327 394.5C728.763 394.5 744.328 407.643 744.328 422.75Z" fill="#FFFDFD" stroke="black" stroke-width="5"/>
<path d="M792.715 437.998C792.715 453.105 777.15 466.248 756.714 466.248C736.277 466.248 720.712 453.105 720.712 437.998C720.712 422.891 736.277 409.748 756.714 409.748C777.15 409.748 792.715 422.891 792.715 437.998Z" fill="#FFFDFD" stroke="black" stroke-width="5"/>
<path d="M838.5 469.002C838.5 484.109 822.935 497.252 802.499 497.252C782.062 497.252 766.498 484.109 766.498 469.002C766.498 453.895 782.062 440.752 802.499 440.752C822.935 440.752 838.5 453.895 838.5 469.002Z" fill="#FFFDFD" stroke="black" stroke-width="5"/>
<path d="M792.715 484.25C792.715 499.357 777.15 512.5 756.714 512.5C736.277 512.5 720.712 499.357 720.712 484.25C720.712 469.143 736.277 456 756.714 456C777.15 456 792.715 469.143 792.715 484.25Z" fill="#FFFDFD" stroke="black" stroke-width="5"/>
<path d="M736.003 484.25C736.003 499.357 720.439 512.5 700.002 512.5C679.566 512.5 664.001 499.357 664.001 484.25C664.001 469.143 679.566 456 700.002 456C720.439 456 736.003 469.143 736.003 484.25Z" fill="#FFFDFD" stroke="black" stroke-width="5"/>
<path d="M697.502 453.246C697.502 468.353 681.938 481.496 661.501 481.496C641.065 481.496 625.5 468.353 625.5 453.246C625.5 438.139 641.065 424.996 661.501 424.996C681.938 424.996 697.502 438.139 697.502 453.246Z" fill="#FFFDFD" stroke="black" stroke-width="5"/>
<ellipse cx="738.243" cy="467.986" rx="79.864" ry="31.7665" fill="white"/>
<ellipse cx="715.351" cy="452.229" rx="79.864" ry="31.7665" fill="white"/>
<path d="M179.591 444.149C179.591 453.427 170.082 461.798 157.189 461.798C144.296 461.798 134.787 453.427 134.787 444.149C134.787 434.87 144.296 426.5 157.189 426.5C170.082 426.5 179.591 434.87 179.591 444.149Z" fill="#FFFDFD" stroke="black" stroke-width="5"/>
<path d="M210.887 454.14C210.887 463.418 201.378 471.789 188.485 471.789C175.592 471.789 166.083 463.418 166.083 454.14C166.083 444.861 175.592 436.491 188.485 436.491C201.378 436.491 210.887 444.861 210.887 454.14Z" fill="#FFFDFD" stroke="black" stroke-width="5"/>
<path d="M240.5 474.455C240.5 483.734 230.991 492.104 218.098 492.104C205.205 492.104 195.696 483.734 195.696 474.455C195.696 465.177 205.205 456.806 218.098 456.806C230.991 456.806 240.5 465.177 240.5 474.455Z" fill="#FFFDFD" stroke="black" stroke-width="5"/>
<path d="M210.887 484.446C210.887 493.725 201.378 502.095 188.485 502.095C175.592 502.095 166.083 493.725 166.083 484.446C166.083 475.168 175.592 466.798 188.485 466.798C201.378 466.798 210.887 475.168 210.887 484.446Z" fill="#FFFDFD" stroke="black" stroke-width="5"/>
<path d="M174.206 484.446C174.206 493.725 164.697 502.095 151.804 502.095C138.911 502.095 129.402 493.725 129.402 484.446C129.402 475.168 138.911 466.798 151.804 466.798C164.697 466.798 174.206 475.168 174.206 484.446Z" fill="#FFFDFD" stroke="black" stroke-width="5"/>
<path d="M149.304 464.131C149.304 473.41 139.795 481.78 126.902 481.78C114.009 481.78 104.5 473.41 104.5 464.131C104.5 454.853 114.009 446.482 126.902 446.482C139.795 446.482 149.304 454.853 149.304 464.131Z" fill="#FFFDFD" stroke="black" stroke-width="5"/>
<ellipse cx="176.538" cy="473.789" rx="51.6551" ry="20.8148" fill="white"/>
<ellipse cx="161.731" cy="463.465" rx="51.6551" ry="20.8148" fill="white"/>
<path d="M1425.59 464.149C1425.59 473.427 1416.08 481.798 1403.19 481.798C1390.3 481.798 1380.79 473.427 1380.79 464.149C1380.79 454.87 1390.3 446.5 1403.19 446.5C1416.08 446.5 1425.59 454.87 1425.59 464.149Z" fill="#FFFDFD" stroke="black" stroke-width="5"/>
<path d="M1456.89 474.14C1456.89 483.418 1447.38 491.789 1434.48 491.789C1421.59 491.789 1412.08 483.418 1412.08 474.14C1412.08 464.861 1421.59 456.491 1434.48 456.491C1447.38 456.491 1456.89 464.861 1456.89 474.14Z" fill="#FFFDFD" stroke="black" stroke-width="5"/>
<path d="M1486.5 494.455C1486.5 503.734 1476.99 512.104 1464.1 512.104C1451.2 512.104 1441.7 503.734 1441.7 494.455C1441.7 485.177 1451.2 476.806 1464.1 476.806C1476.99 476.806 1486.5 485.177 1486.5 494.455Z" fill="#FFFDFD" stroke="black" stroke-width="5"/>
<path d="M1456.89 504.446C1456.89 513.725 1447.38 522.095 1434.48 522.095C1421.59 522.095 1412.08 513.725 1412.08 504.446C1412.08 495.168 1421.59 486.798 1434.48 486.798C1447.38 486.798 1456.89 495.168 1456.89 504.446Z" fill="#FFFDFD" stroke="black" stroke-width="5"/>
<path d="M1420.21 504.446C1420.21 513.725 1410.7 522.095 1397.8 522.095C1384.91 522.095 1375.4 513.725 1375.4 504.446C1375.4 495.168 1384.91 486.798 1397.8 486.798C1410.7 486.798 1420.21 495.168 1420.21 504.446Z" fill="#FFFDFD" stroke="black" stroke-width="5"/>
<path d="M1395.3 484.131C1395.3 493.41 1385.8 501.78 1372.9 501.78C1360.01 501.78 1350.5 493.41 1350.5 484.131C1350.5 474.853 1360.01 466.482 1372.9 466.482C1385.8 466.482 1395.3 474.853 1395.3 484.131Z" fill="#FFFDFD" stroke="black" stroke-width="5"/>
<ellipse cx="1422.54" cy="493.789" rx="51.6551" ry="20.8148" fill="white"/>
<ellipse cx="1407.73" cy="483.465" rx="51.6551" ry="20.8148" fill="white"/>
<path d="M1038.59 352.149C1038.59 361.427 1029.08 369.798 1016.19 369.798C1003.3 369.798 993.786 361.427 993.786 352.149C993.786 342.87 1003.3 334.5 1016.19 334.5C1029.08 334.5 1038.59 342.87 1038.59 352.149Z" fill="#FFFDFD" stroke="black" stroke-width="5"/>
<path d="M1069.89 362.14C1069.89 371.418 1060.38 379.789 1047.48 379.789C1034.59 379.789 1025.08 371.418 1025.08 362.14C1025.08 352.861 1034.59 344.491 1047.48 344.491C1060.38 344.491 1069.89 352.861 1069.89 362.14Z" fill="#FFFDFD" stroke="black" stroke-width="5"/>
<path d="M1099.5 382.455C1099.5 391.734 1089.99 400.104 1077.1 400.104C1064.2 400.104 1054.7 391.734 1054.7 382.455C1054.7 373.177 1064.2 364.806 1077.1 364.806C1089.99 364.806 1099.5 373.177 1099.5 382.455Z" fill="#FFFDFD" stroke="black" stroke-width="5"/>
<path d="M1069.89 392.446C1069.89 401.725 1060.38 410.095 1047.48 410.095C1034.59 410.095 1025.08 401.725 1025.08 392.446C1025.08 383.168 1034.59 374.798 1047.48 374.798C1060.38 374.798 1069.89 383.168 1069.89 392.446Z" fill="#FFFDFD" stroke="black" stroke-width="5"/>
<path d="M1033.21 392.446C1033.21 401.725 1023.7 410.095 1010.8 410.095C997.911 410.095 988.402 401.725 988.402 392.446C988.402 383.168 997.911 374.798 1010.8 374.798C1023.7 374.798 1033.21 383.168 1033.21 392.446Z" fill="#FFFDFD" stroke="black" stroke-width="5"/>
<path d="M1008.3 372.131C1008.3 381.41 998.795 389.78 985.902 389.78C973.009 389.78 963.5 381.41 963.5 372.131C963.5 362.853 973.009 354.482 985.902 354.482C998.795 354.482 1008.3 362.853 1008.3 372.131Z" fill="#FFFDFD" stroke="black" stroke-width="5"/>
<ellipse cx="1035.54" cy="381.789" rx="51.6551" ry="20.8148" fill="white"/>
<ellipse cx="1020.73" cy="371.465" rx="51.6551" ry="20.8148" fill="white"/>
<path d="M459.354 225.25C459.354 249.463 434.467 270 402.513 270C370.559 270 345.672 249.463 345.672 225.25C345.672 201.037 370.559 180.5 402.513 180.5C434.467 180.5 459.354 201.037 459.354 225.25Z" fill="#FFFDFD" stroke="black" stroke-width="5"/>
<path d="M533.932 248.68C533.932 272.893 509.045 293.43 477.091 293.43C445.137 293.43 420.25 272.893 420.25 248.68C420.25 224.466 445.137 203.93 477.091 203.93C509.045 203.93 533.932 224.466 533.932 248.68Z" fill="#FFFDFD" stroke="black" stroke-width="5"/>
<path d="M604.5 296.32C604.5 320.534 579.613 341.07 547.659 341.07C515.705 341.07 490.817 320.534 490.817 296.32C490.817 272.107 515.705 251.57 547.659 251.57C579.613 251.57 604.5 272.107 604.5 296.32Z" fill="#FFFDFD" stroke="black" stroke-width="5"/>
<path d="M533.932 319.75C533.932 343.963 509.045 364.5 477.091 364.5C445.137 364.5 420.25 343.963 420.25 319.75C420.25 295.537 445.137 275 477.091 275C509.045 275 533.932 295.537 533.932 319.75Z" fill="#FFFDFD" stroke="black" stroke-width="5"/>
<path d="M446.524 319.75C446.524 343.963 421.637 364.5 389.683 364.5C357.729 364.5 332.841 343.963 332.841 319.75C332.841 295.537 357.729 275 389.683 275C421.637 275 446.524 295.537 446.524 319.75Z" fill="#FFFDFD" stroke="black" stroke-width="5"/>
<path d="M387.183 272.109C387.183 296.323 362.295 316.859 330.341 316.859C298.387 316.859 273.5 296.323 273.5 272.109C273.5 247.896 298.387 227.359 330.341 227.359C362.295 227.359 387.183 247.896 387.183 272.109Z" fill="#FFFDFD" stroke="black" stroke-width="5"/>
<path d="M1356.35 157.25C1356.35 181.463 1331.47 202 1299.51 202C1267.56 202 1242.67 181.463 1242.67 157.25C1242.67 133.037 1267.56 112.5 1299.51 112.5C1331.47 112.5 1356.35 133.037 1356.35 157.25Z" fill="#FFFDFD" stroke="black" stroke-width="5"/>
<path d="M1430.93 180.68C1430.93 204.893 1406.04 225.43 1374.09 225.43C1342.14 225.43 1317.25 204.893 1317.25 180.68C1317.25 156.466 1342.14 135.93 1374.09 135.93C1406.04 135.93 1430.93 156.466 1430.93 180.68Z" fill="#FFFDFD" stroke="black" stroke-width="5"/>
<path d="M1501.5 228.32C1501.5 252.534 1476.61 273.07 1444.66 273.07C1412.7 273.07 1387.82 252.534 1387.82 228.32C1387.82 204.107 1412.7 183.57 1444.66 183.57C1476.61 183.57 1501.5 204.107 1501.5 228.32Z" fill="#FFFDFD" stroke="black" stroke-width="5"/>
<path d="M1430.93 251.75C1430.93 275.963 1406.04 296.5 1374.09 296.5C1342.14 296.5 1317.25 275.963 1317.25 251.75C1317.25 227.537 1342.14 207 1374.09 207C1406.04 207 1430.93 227.537 1430.93 251.75Z" fill="#FFFDFD" stroke="black" stroke-width="5"/>
<path d="M1343.52 251.75C1343.52 275.963 1318.64 296.5 1286.68 296.5C1254.73 296.5 1229.84 275.963 1229.84 251.75C1229.84 227.537 1254.73 207 1286.68 207C1318.64 207 1343.52 227.537 1343.52 251.75Z" fill="#FFFDFD" stroke="black" stroke-width="5"/>
<path d="M1284.18 204.109C1284.18 228.323 1259.3 248.859 1227.34 248.859C1195.39 248.859 1170.5 228.323 1170.5 204.109C1170.5 179.896 1195.39 159.359 1227.34 159.359C1259.3 159.359 1284.18 179.896 1284.18 204.109Z" fill="#FFFDFD" stroke="black" stroke-width="5"/>
<ellipse cx="1345.62" cy="226.758" rx="123.093" ry="48.812" fill="white"/>
<ellipse cx="1310.34" cy="202.548" rx="123.093" ry="48.812" fill="white"/>
<path d="M808.09 90.75C808.09 100.2 802.934 108.955 794.202 115.436C785.47 121.917 773.289 126 759.726 126C746.163 126 733.982 121.917 725.249 115.436C716.517 108.955 711.362 100.2 711.362 90.75C711.362 81.3003 716.517 72.5452 725.249 66.0642C733.982 59.5834 746.163 55.5 759.726 55.5C773.289 55.5 785.47 59.5834 794.202 66.0642C802.934 72.5452 808.09 81.3003 808.09 90.75Z" fill="#FFFDFD" stroke="black" stroke-width="5"/>
<path d="M872.013 109.469C872.013 118.919 866.858 127.674 858.125 134.155C849.393 140.636 837.212 144.719 823.649 144.719C810.086 144.719 797.905 140.636 789.173 134.155C780.44 127.674 775.285 118.919 775.285 109.469C775.285 100.019 780.44 91.2642 789.173 84.7832C797.905 78.3024 810.086 74.219 823.649 74.219C837.212 74.219 849.393 78.3024 858.125 84.7832C866.858 91.2642 872.013 100.019 872.013 109.469Z" fill="#FFFDFD" stroke="black" stroke-width="5"/>
<path d="M932.5 147.531C932.5 156.981 927.345 165.736 918.612 172.217C909.88 178.698 897.699 182.781 884.136 182.781C870.573 182.781 858.392 178.698 849.66 172.217C840.927 165.736 835.772 156.981 835.772 147.531C835.772 138.081 840.927 129.326 849.66 122.845C858.392 116.364 870.573 112.281 884.136 112.281C897.699 112.281 909.88 116.364 918.612 122.845C927.345 129.326 932.5 138.081 932.5 147.531Z" fill="#FFFDFD" stroke="black" stroke-width="5"/>
<path d="M872.013 166.25C872.013 175.7 866.858 184.455 858.125 190.936C849.393 197.417 837.212 201.5 823.649 201.5C810.086 201.5 797.905 197.417 789.173 190.936C780.44 184.455 775.285 175.7 775.285 166.25C775.285 156.8 780.44 148.045 789.173 141.564C797.905 135.083 810.086 131 823.649 131C837.212 131 849.393 135.083 858.125 141.564C866.858 148.045 872.013 156.8 872.013 166.25Z" fill="#FFFDFD" stroke="black" stroke-width="5"/>
<path d="M797.092 166.25C797.092 175.7 791.936 184.455 783.204 190.936C774.472 197.417 762.291 201.5 748.728 201.5C735.165 201.5 722.984 197.417 714.251 190.936C705.519 184.455 700.364 175.7 700.364 166.25C700.364 156.8 705.519 148.045 714.251 141.564C722.984 135.083 735.165 131 748.728 131C762.291 131 774.472 135.083 783.204 141.564C791.936 148.045 797.092 156.8 797.092 166.25Z" fill="#FFFDFD" stroke="black" stroke-width="5"/>
<path d="M746.228 128.188C746.228 137.638 741.073 146.393 732.34 152.874C723.608 159.355 711.427 163.438 697.864 163.438C684.301 163.438 672.12 159.355 663.388 152.874C654.655 146.393 649.5 137.638 649.5 128.188C649.5 118.738 654.655 109.983 663.388 103.502C672.12 97.0214 684.301 92.938 697.864 92.938C711.427 92.938 723.608 97.0214 732.34 103.502C741.073 109.983 746.228 118.738 746.228 128.188Z" fill="#FFFDFD" stroke="black" stroke-width="5"/>
<ellipse cx="799.248" cy="146.283" rx="105.508" ry="38.9979" fill="white"/>
<ellipse cx="769.005" cy="126.94" rx="105.508" ry="38.9979" fill="white"/>
<path d="M131.128 619.491C131.128 626.945 124.214 633.482 115.038 633.482C105.863 633.482 98.9492 626.945 98.9492 619.491C98.9492 612.037 105.863 605.5 115.038 605.5C124.214 605.5 131.128 612.037 131.128 619.491Z" fill="#F74780" stroke="black" stroke-width="5"/>
<path d="M109.679 636.613C109.679 644.067 102.765 650.604 93.5893 650.604C84.4135 650.604 77.5 644.067 77.5 636.613C77.5 629.159 84.4135 622.622 93.5893 622.622C102.765 622.622 109.679 629.159 109.679 636.613Z" fill="#F74780" stroke="black" stroke-width="5"/>
<path d="M119.152 660.944C119.152 668.398 112.239 674.935 103.063 674.935C93.8872 674.935 86.9736 668.398 86.9736 660.944C86.9736 653.49 93.8872 646.953 103.063 646.953C112.239 646.953 119.152 653.49 119.152 660.944Z" fill="#F74780" stroke="black" stroke-width="5"/>
<path d="M150.808 660.724C150.274 668.158 142.91 674.175 133.758 673.506C124.606 672.837 118.18 665.814 118.714 658.379C119.248 650.945 126.612 644.929 135.764 645.597C144.916 646.266 151.343 653.29 150.808 660.724Z" fill="#F74780" stroke="black" stroke-width="5"/>
<path d="M159.189 636.469C159.255 643.923 152.399 650.521 143.224 650.603C134.049 650.685 127.078 644.21 127.012 636.757C126.947 629.303 133.802 622.704 142.978 622.622C152.153 622.54 159.124 629.015 159.189 636.469Z" fill="#F74780" stroke="black" stroke-width="5"/>
<path d="M132.2 641.839C132.2 649.293 125.286 655.83 116.111 655.83C106.935 655.83 100.021 649.293 100.021 641.839C100.021 634.385 106.935 627.848 116.111 627.848C125.286 627.848 132.2 634.385 132.2 641.839Z" fill="#FFFB07" stroke="black" stroke-width="5"/>
<path d="M446.128 879.491C446.128 886.945 439.214 893.482 430.038 893.482C420.863 893.482 413.949 886.945 413.949 879.491C413.949 872.037 420.863 865.5 430.038 865.5C439.214 865.5 446.128 872.037 446.128 879.491Z" fill="#F74780" stroke="black" stroke-width="5"/>
<path d="M424.679 896.613C424.679 904.067 417.765 910.604 408.589 910.604C399.414 910.604 392.5 904.067 392.5 896.613C392.5 889.159 399.414 882.622 408.589 882.622C417.765 882.622 424.679 889.159 424.679 896.613Z" fill="#F74780" stroke="black" stroke-width="5"/>
<path d="M434.152 920.944C434.152 928.398 427.239 934.935 418.063 934.935C408.887 934.935 401.974 928.398 401.974 920.944C401.974 913.49 408.887 906.953 418.063 906.953C427.239 906.953 434.152 913.49 434.152 920.944Z" fill="#F74780" stroke="black" stroke-width="5"/>
<path d="M465.808 920.724C465.274 928.158 457.91 934.175 448.758 933.506C439.606 932.837 433.18 925.814 433.714 918.379C434.248 910.945 441.612 904.929 450.764 905.597C459.916 906.266 466.343 913.29 465.808 920.724Z" fill="#F74780" stroke="black" stroke-width="5"/>
<path d="M474.189 896.469C474.255 903.923 467.399 910.521 458.224 910.603C449.049 910.685 442.078 904.21 442.012 896.757C441.947 889.303 448.802 882.704 457.978 882.622C467.153 882.54 474.124 889.015 474.189 896.469Z" fill="#F74780" stroke="black" stroke-width="5"/>
<path d="M447.2 901.839C447.2 909.293 440.286 915.83 431.111 915.83C421.935 915.83 415.021 909.293 415.021 901.839C415.021 894.385 421.935 887.848 431.111 887.848C440.286 887.848 447.2 894.385 447.2 901.839Z" fill="#FFFB07" stroke="black" stroke-width="5"/>
<path d="M449.128 622.491C449.128 629.945 442.214 636.482 433.038 636.482C423.863 636.482 416.949 629.945 416.949 622.491C416.949 615.037 423.863 608.5 433.038 608.5C442.214 608.5 449.128 615.037 449.128 622.491Z" fill="#F74780" stroke="black" stroke-width="5"/>
<path d="M427.679 639.613C427.679 647.067 420.765 653.604 411.589 653.604C402.414 653.604 395.5 647.067 395.5 639.613C395.5 632.159 402.414 625.622 411.589 625.622C420.765 625.622 427.679 632.159 427.679 639.613Z" fill="#F74780" stroke="black" stroke-width="5"/>
<path d="M437.152 663.944C437.152 671.398 430.239 677.935 421.063 677.935C411.887 677.935 404.974 671.398 404.974 663.944C404.974 656.49 411.887 649.953 421.063 649.953C430.239 649.953 437.152 656.49 437.152 663.944Z" fill="#F74780" stroke="black" stroke-width="5"/>
<path d="M468.808 663.724C468.274 671.158 460.91 677.175 451.758 676.506C442.606 675.837 436.18 668.814 436.714 661.379C437.248 653.945 444.612 647.929 453.764 648.597C462.916 649.266 469.343 656.29 468.808 663.724Z" fill="#F74780" stroke="black" stroke-width="5"/>
<path d="M477.189 639.469C477.255 646.923 470.399 653.521 461.224 653.603C452.049 653.685 445.078 647.21 445.012 639.757C444.947 632.303 451.802 625.704 460.978 625.622C470.153 625.54 477.124 632.015 477.189 639.469Z" fill="#F74780" stroke="black" stroke-width="5"/>
<path d="M450.2 644.839C450.2 652.293 443.286 658.83 434.111 658.83C424.935 658.83 418.021 652.293 418.021 644.839C418.021 637.385 424.935 630.848 434.111 630.848C443.286 630.848 450.2 637.385 450.2 644.839Z" fill="#FFFB07" stroke="black" stroke-width="5"/>
<path d="M764.128 875.491C764.128 882.945 757.214 889.482 748.038 889.482C738.863 889.482 731.949 882.945 731.949 875.491C731.949 868.037 738.863 861.5 748.038 861.5C757.214 861.5 764.128 868.037 764.128 875.491Z" fill="#F74780" stroke="black" stroke-width="5"/>
<path d="M742.679 892.613C742.679 900.067 735.765 906.604 726.589 906.604C717.414 906.604 710.5 900.067 710.5 892.613C710.5 885.159 717.414 878.622 726.589 878.622C735.765 878.622 742.679 885.159 742.679 892.613Z" fill="#F74780" stroke="black" stroke-width="5"/>
<path d="M752.152 916.944C752.152 924.398 745.239 930.935 736.063 930.935C726.887 930.935 719.974 924.398 719.974 916.944C719.974 909.49 726.887 902.953 736.063 902.953C745.239 902.953 752.152 909.49 752.152 916.944Z" fill="#F74780" stroke="black" stroke-width="5"/>
<path d="M783.808 916.724C783.274 924.158 775.91 930.175 766.758 929.506C757.606 928.837 751.18 921.814 751.714 914.379C752.248 906.945 759.612 900.929 768.764 901.597C777.916 902.266 784.343 909.29 783.808 916.724Z" fill="#F74780" stroke="black" stroke-width="5"/>
<path d="M792.189 892.469C792.255 899.923 785.399 906.521 776.224 906.603C767.049 906.685 760.078 900.21 760.012 892.757C759.947 885.303 766.802 878.704 775.978 878.622C785.153 878.54 792.124 885.015 792.189 892.469Z" fill="#F74780" stroke="black" stroke-width="5"/>
<path d="M765.2 897.839C765.2 905.293 758.286 911.83 749.111 911.83C739.935 911.83 733.021 905.293 733.021 897.839C733.021 890.385 739.935 883.848 749.111 883.848C758.286 883.848 765.2 890.385 765.2 897.839Z" fill="#FFFB07" stroke="black" stroke-width="5"/>
<path d="M616.128 746.491C616.128 753.945 609.214 760.482 600.038 760.482C590.863 760.482 583.949 753.945 583.949 746.491C583.949 739.037 590.863 732.5 600.038 732.5C609.214 732.5 616.128 739.037 616.128 746.491Z" fill="#F74780" stroke="black" stroke-width="5"/>
<path d="M594.679 763.613C594.679 771.067 587.765 777.604 578.589 777.604C569.414 777.604 562.5 771.067 562.5 763.613C562.5 756.159 569.414 749.622 578.589 749.622C587.765 749.622 594.679 756.159 594.679 763.613Z" fill="#F74780" stroke="black" stroke-width="5"/>
<path d="M604.152 787.944C604.152 795.398 597.239 801.935 588.063 801.935C578.887 801.935 571.974 795.398 571.974 787.944C571.974 780.49 578.887 773.953 588.063 773.953C597.239 773.953 604.152 780.49 604.152 787.944Z" fill="#F74780" stroke="black" stroke-width="5"/>
<path d="M635.808 787.724C635.274 795.158 627.91 801.175 618.758 800.506C609.606 799.837 603.18 792.814 603.714 785.379C604.248 777.945 611.612 771.929 620.764 772.597C629.916 773.266 636.343 780.29 635.808 787.724Z" fill="#F74780" stroke="black" stroke-width="5"/>
<path d="M644.189 763.469C644.255 770.923 637.399 777.521 628.224 777.603C619.049 777.685 612.078 771.21 612.012 763.757C611.947 756.303 618.802 749.704 627.978 749.622C637.153 749.54 644.124 756.015 644.189 763.469Z" fill="#F74780" stroke="black" stroke-width="5"/>
<path d="M617.2 768.839C617.2 776.293 610.286 782.83 601.111 782.83C591.935 782.83 585.021 776.293 585.021 768.839C585.021 761.385 591.935 754.848 601.111 754.848C610.286 754.848 617.2 761.385 617.2 768.839Z" fill="#FFFB07" stroke="black" stroke-width="5"/>
<path d="M259.128 753.491C259.128 760.945 252.214 767.482 243.038 767.482C233.863 767.482 226.949 760.945 226.949 753.491C226.949 746.037 233.863 739.5 243.038 739.5C252.214 739.5 259.128 746.037 259.128 753.491Z" fill="#F74780" stroke="black" stroke-width="5"/>
<path d="M237.679 770.613C237.679 778.067 230.765 784.604 221.589 784.604C212.414 784.604 205.5 778.067 205.5 770.613C205.5 763.159 212.414 756.622 221.589 756.622C230.765 756.622 237.679 763.159 237.679 770.613Z" fill="#F74780" stroke="black" stroke-width="5"/>
<path d="M247.152 794.944C247.152 802.398 240.239 808.935 231.063 808.935C221.887 808.935 214.974 802.398 214.974 794.944C214.974 787.49 221.887 780.953 231.063 780.953C240.239 780.953 247.152 787.49 247.152 794.944Z" fill="#F74780" stroke="black" stroke-width="5"/>
<path d="M278.808 794.724C278.274 802.158 270.91 808.175 261.758 807.506C252.606 806.837 246.18 799.814 246.714 792.379C247.248 784.945 254.612 778.929 263.764 779.597C272.916 780.266 279.343 787.29 278.808 794.724Z" fill="#F74780" stroke="black" stroke-width="5"/>
<path d="M287.189 770.469C287.255 777.923 280.399 784.521 271.224 784.603C262.049 784.685 255.078 778.21 255.012 770.757C254.947 763.303 261.802 756.704 270.978 756.622C280.153 756.54 287.124 763.015 287.189 770.469Z" fill="#F74780" stroke="black" stroke-width="5"/>
<path d="M260.2 775.839C260.2 783.293 253.286 789.83 244.111 789.83C234.935 789.83 228.021 783.293 228.021 775.839C228.021 768.385 234.935 761.848 244.111 761.848C253.286 761.848 260.2 768.385 260.2 775.839Z" fill="#FFFB07" stroke="black" stroke-width="5"/>
<path d="M778.128 634.491C778.128 641.945 771.214 648.482 762.038 648.482C752.863 648.482 745.949 641.945 745.949 634.491C745.949 627.037 752.863 620.5 762.038 620.5C771.214 620.5 778.128 627.037 778.128 634.491Z" fill="#F74780" stroke="black" stroke-width="5"/>
<path d="M756.679 651.613C756.679 659.067 749.765 665.604 740.589 665.604C731.414 665.604 724.5 659.067 724.5 651.613C724.5 644.159 731.414 637.622 740.589 637.622C749.765 637.622 756.679 644.159 756.679 651.613Z" fill="#F74780" stroke="black" stroke-width="5"/>
<path d="M766.152 675.944C766.152 683.398 759.239 689.935 750.063 689.935C740.887 689.935 733.974 683.398 733.974 675.944C733.974 668.49 740.887 661.953 750.063 661.953C759.239 661.953 766.152 668.49 766.152 675.944Z" fill="#F74780" stroke="black" stroke-width="5"/>
<path d="M797.808 675.724C797.274 683.158 789.91 689.175 780.758 688.506C771.606 687.837 765.18 680.814 765.714 673.379C766.248 665.945 773.612 659.929 782.764 660.597C791.916 661.266 798.343 668.29 797.808 675.724Z" fill="#F74780" stroke="black" stroke-width="5"/>
<path d="M806.189 651.469C806.255 658.923 799.399 665.521 790.224 665.603C781.049 665.685 774.078 659.21 774.012 651.757C773.947 644.303 780.802 637.704 789.978 637.622C799.153 637.54 806.124 644.015 806.189 651.469Z" fill="#F74780" stroke="black" stroke-width="5"/>
<path d="M779.2 656.839C779.2 664.293 772.286 670.83 763.111 670.83C753.935 670.83 747.021 664.293 747.021 656.839C747.021 649.385 753.935 642.848 763.111 642.848C772.286 642.848 779.2 649.385 779.2 656.839Z" fill="#FFFB07" stroke="black" stroke-width="5"/>
<path d="M943.128 763.491C943.128 770.945 936.214 777.482 927.038 777.482C917.863 777.482 910.949 770.945 910.949 763.491C910.949 756.037 917.863 749.5 927.038 749.5C936.214 749.5 943.128 756.037 943.128 763.491Z" fill="#F74780" stroke="black" stroke-width="5"/>
<path d="M921.679 780.613C921.679 788.067 914.765 794.604 905.589 794.604C896.414 794.604 889.5 788.067 889.5 780.613C889.5 773.159 896.414 766.622 905.589 766.622C914.765 766.622 921.679 773.159 921.679 780.613Z" fill="#F74780" stroke="black" stroke-width="5"/>
<path d="M931.152 804.944C931.152 812.398 924.239 818.935 915.063 818.935C905.887 818.935 898.974 812.398 898.974 804.944C898.974 797.49 905.887 790.953 915.063 790.953C924.239 790.953 931.152 797.49 931.152 804.944Z" fill="#F74780" stroke="black" stroke-width="5"/>
<path d="M962.808 804.724C962.274 812.158 954.91 818.175 945.758 817.506C936.606 816.837 930.18 809.814 930.714 802.379C931.248 794.945 938.612 788.929 947.764 789.597C956.916 790.266 963.343 797.29 962.808 804.724Z" fill="#F74780" stroke="black" stroke-width="5"/>
<path d="M971.189 780.469C971.255 787.923 964.399 794.521 955.224 794.603C946.049 794.685 939.078 788.21 939.012 780.757C938.947 773.303 945.802 766.704 954.978 766.622C964.153 766.54 971.124 773.015 971.189 780.469Z" fill="#F74780" stroke="black" stroke-width="5"/>
<path d="M944.2 785.839C944.2 793.293 937.286 799.83 928.111 799.83C918.935 799.83 912.021 793.293 912.021 785.839C912.021 778.385 918.935 771.848 928.111 771.848C937.286 771.848 944.2 778.385 944.2 785.839Z" fill="#FFFB07" stroke="black" stroke-width="5"/>
<path d="M1072.13 633.491C1072.13 640.945 1065.21 647.482 1056.04 647.482C1046.86 647.482 1039.95 640.945 1039.95 633.491C1039.95 626.037 1046.86 619.5 1056.04 619.5C1065.21 619.5 1072.13 626.037 1072.13 633.491Z" fill="#F74780" stroke="black" stroke-width="5"/>
<path d="M1050.68 650.613C1050.68 658.067 1043.76 664.604 1034.59 664.604C1025.41 664.604 1018.5 658.067 1018.5 650.613C1018.5 643.159 1025.41 636.622 1034.59 636.622C1043.76 636.622 1050.68 643.159 1050.68 650.613Z" fill="#F74780" stroke="black" stroke-width="5"/>
<path d="M1060.15 674.944C1060.15 682.398 1053.24 688.935 1044.06 688.935C1034.89 688.935 1027.97 682.398 1027.97 674.944C1027.97 667.49 1034.89 660.953 1044.06 660.953C1053.24 660.953 1060.15 667.49 1060.15 674.944Z" fill="#F74780" stroke="black" stroke-width="5"/>
<path d="M1091.81 674.724C1091.27 682.158 1083.91 688.175 1074.76 687.506C1065.61 686.837 1059.18 679.814 1059.71 672.379C1060.25 664.945 1067.61 658.929 1076.76 659.597C1085.92 660.266 1092.34 667.29 1091.81 674.724Z" fill="#F74780" stroke="black" stroke-width="5"/>
<path d="M1100.19 650.469C1100.26 657.923 1093.4 664.521 1084.22 664.603C1075.05 664.685 1068.08 658.21 1068.01 650.757C1067.95 643.303 1074.8 636.704 1083.98 636.622C1093.15 636.54 1100.12 643.015 1100.19 650.469Z" fill="#F74780" stroke="black" stroke-width="5"/>
<path d="M1073.2 655.839C1073.2 663.293 1066.29 669.83 1057.11 669.83C1047.94 669.83 1041.02 663.293 1041.02 655.839C1041.02 648.385 1047.94 641.848 1057.11 641.848C1066.29 641.848 1073.2 648.385 1073.2 655.839Z" fill="#FFFB07" stroke="black" stroke-width="5"/>
<path d="M1071.13 875.491C1071.13 882.945 1064.21 889.482 1055.04 889.482C1045.86 889.482 1038.95 882.945 1038.95 875.491C1038.95 868.037 1045.86 861.5 1055.04 861.5C1064.21 861.5 1071.13 868.037 1071.13 875.491Z" fill="#F74780" stroke="black" stroke-width="5"/>
<path d="M1049.68 892.613C1049.68 900.067 1042.76 906.604 1033.59 906.604C1024.41 906.604 1017.5 900.067 1017.5 892.613C1017.5 885.159 1024.41 878.622 1033.59 878.622C1042.76 878.622 1049.68 885.159 1049.68 892.613Z" fill="#F74780" stroke="black" stroke-width="5"/>
<path d="M1059.15 916.944C1059.15 924.398 1052.24 930.935 1043.06 930.935C1033.89 930.935 1026.97 924.398 1026.97 916.944C1026.97 909.49 1033.89 902.953 1043.06 902.953C1052.24 902.953 1059.15 909.49 1059.15 916.944Z" fill="#F74780" stroke="black" stroke-width="5"/>
<path d="M1090.81 916.724C1090.27 924.158 1082.91 930.175 1073.76 929.506C1064.61 928.837 1058.18 921.814 1058.71 914.379C1059.25 906.945 1066.61 900.929 1075.76 901.597C1084.92 902.266 1091.34 909.29 1090.81 916.724Z" fill="#F74780" stroke="black" stroke-width="5"/>
<path d="M1099.19 892.469C1099.26 899.923 1092.4 906.521 1083.22 906.603C1074.05 906.685 1067.08 900.21 1067.01 892.757C1066.95 885.303 1073.8 878.704 1082.98 878.622C1092.15 878.54 1099.12 885.015 1099.19 892.469Z" fill="#F74780" stroke="black" stroke-width="5"/>
<path d="M1072.2 897.839C1072.2 905.293 1065.29 911.83 1056.11 911.83C1046.94 911.83 1040.02 905.293 1040.02 897.839C1040.02 890.385 1046.94 883.848 1056.11 883.848C1065.29 883.848 1072.2 890.385 1072.2 897.839Z" fill="#FFFB07" stroke="black" stroke-width="5"/>
<path d="M1333.13 872.491C1333.13 879.945 1326.21 886.482 1317.04 886.482C1307.86 886.482 1300.95 879.945 1300.95 872.491C1300.95 865.037 1307.86 858.5 1317.04 858.5C1326.21 858.5 1333.13 865.037 1333.13 872.491Z" fill="#F74780" stroke="black" stroke-width="5"/>
<path d="M1311.68 889.613C1311.68 897.067 1304.76 903.604 1295.59 903.604C1286.41 903.604 1279.5 897.067 1279.5 889.613C1279.5 882.159 1286.41 875.622 1295.59 875.622C1304.76 875.622 1311.68 882.159 1311.68 889.613Z" fill="#F74780" stroke="black" stroke-width="5"/>
<path d="M1321.15 913.944C1321.15 921.398 1314.24 927.935 1305.06 927.935C1295.89 927.935 1288.97 921.398 1288.97 913.944C1288.97 906.49 1295.89 899.953 1305.06 899.953C1314.24 899.953 1321.15 906.49 1321.15 913.944Z" fill="#F74780" stroke="black" stroke-width="5"/>
<path d="M1352.81 913.724C1352.27 921.158 1344.91 927.175 1335.76 926.506C1326.61 925.837 1320.18 918.814 1320.71 911.379C1321.25 903.945 1328.61 897.929 1337.76 898.597C1346.92 899.266 1353.34 906.29 1352.81 913.724Z" fill="#F74780" stroke="black" stroke-width="5"/>
<path d="M1361.19 889.469C1361.26 896.923 1354.4 903.521 1345.22 903.603C1336.05 903.685 1329.08 897.21 1329.01 889.757C1328.95 882.303 1335.8 875.704 1344.98 875.622C1354.15 875.54 1361.12 882.015 1361.19 889.469Z" fill="#F74780" stroke="black" stroke-width="5"/>
<path d="M1334.2 894.839C1334.2 902.293 1327.29 908.83 1318.11 908.83C1308.94 908.83 1302.02 902.293 1302.02 894.839C1302.02 887.385 1308.94 880.848 1318.11 880.848C1327.29 880.848 1334.2 887.385 1334.2 894.839Z" fill="#FFFB07" stroke="black" stroke-width="5"/>
<path d="M1200.13 760.491C1200.13 767.945 1193.21 774.482 1184.04 774.482C1174.86 774.482 1167.95 767.945 1167.95 760.491C1167.95 753.037 1174.86 746.5 1184.04 746.5C1193.21 746.5 1200.13 753.037 1200.13 760.491Z" fill="#F74780" stroke="black" stroke-width="5"/>
<path d="M1178.68 777.613C1178.68 785.067 1171.76 791.604 1162.59 791.604C1153.41 791.604 1146.5 785.067 1146.5 777.613C1146.5 770.159 1153.41 763.622 1162.59 763.622C1171.76 763.622 1178.68 770.159 1178.68 777.613Z" fill="#F74780" stroke="black" stroke-width="5"/>
<path d="M1188.15 801.944C1188.15 809.398 1181.24 815.935 1172.06 815.935C1162.89 815.935 1155.97 809.398 1155.97 801.944C1155.97 794.49 1162.89 787.953 1172.06 787.953C1181.24 787.953 1188.15 794.49 1188.15 801.944Z" fill="#F74780" stroke="black" stroke-width="5"/>
<path d="M1219.81 801.724C1219.27 809.158 1211.91 815.175 1202.76 814.506C1193.61 813.837 1187.18 806.814 1187.71 799.379C1188.25 791.945 1195.61 785.929 1204.76 786.597C1213.92 787.266 1220.34 794.29 1219.81 801.724Z" fill="#F74780" stroke="black" stroke-width="5"/>
<path d="M1228.19 777.469C1228.26 784.923 1221.4 791.521 1212.22 791.603C1203.05 791.685 1196.08 785.21 1196.01 777.757C1195.95 770.303 1202.8 763.704 1211.98 763.622C1221.15 763.54 1228.12 770.015 1228.19 777.469Z" fill="#F74780" stroke="black" stroke-width="5"/>
<path d="M1201.2 782.839C1201.2 790.293 1194.29 796.83 1185.11 796.83C1175.94 796.83 1169.02 790.293 1169.02 782.839C1169.02 775.385 1175.94 768.848 1185.11 768.848C1194.29 768.848 1201.2 775.385 1201.2 782.839Z" fill="#FFFB07" stroke="black" stroke-width="5"/>
<path d="M1330.13 615.491C1330.13 622.945 1323.21 629.482 1314.04 629.482C1304.86 629.482 1297.95 622.945 1297.95 615.491C1297.95 608.037 1304.86 601.5 1314.04 601.5C1323.21 601.5 1330.13 608.037 1330.13 615.491Z" fill="#F74780" stroke="black" stroke-width="5"/>
<path d="M1308.68 632.613C1308.68 640.067 1301.76 646.604 1292.59 646.604C1283.41 646.604 1276.5 640.067 1276.5 632.613C1276.5 625.159 1283.41 618.622 1292.59 618.622C1301.76 618.622 1308.68 625.159 1308.68 632.613Z" fill="#F74780" stroke="black" stroke-width="5"/>
<path d="M1318.15 656.944C1318.15 664.398 1311.24 670.935 1302.06 670.935C1292.89 670.935 1285.97 664.398 1285.97 656.944C1285.97 649.49 1292.89 642.953 1302.06 642.953C1311.24 642.953 1318.15 649.49 1318.15 656.944Z" fill="#F74780" stroke="black" stroke-width="5"/>
<path d="M1349.81 656.724C1349.27 664.158 1341.91 670.175 1332.76 669.506C1323.61 668.837 1317.18 661.814 1317.71 654.379C1318.25 646.945 1325.61 640.929 1334.76 641.597C1343.92 642.266 1350.34 649.29 1349.81 656.724Z" fill="#F74780" stroke="black" stroke-width="5"/>
<path d="M1358.19 632.469C1358.26 639.923 1351.4 646.521 1342.22 646.603C1333.05 646.685 1326.08 640.21 1326.01 632.757C1325.95 625.303 1332.8 618.704 1341.98 618.622C1351.15 618.54 1358.12 625.015 1358.19 632.469Z" fill="#F74780" stroke="black" stroke-width="5"/>
<path d="M1331.2 637.839C1331.2 645.293 1324.29 651.83 1315.11 651.83C1305.94 651.83 1299.02 645.293 1299.02 637.839C1299.02 630.385 1305.94 623.848 1315.11 623.848C1324.29 623.848 1331.2 630.385 1331.2 637.839Z" fill="#FFFB07" stroke="black" stroke-width="5"/>
<path d="M1466.13 757.491C1466.13 764.945 1459.21 771.482 1450.04 771.482C1440.86 771.482 1433.95 764.945 1433.95 757.491C1433.95 750.037 1440.86 743.5 1450.04 743.5C1459.21 743.5 1466.13 750.037 1466.13 757.491Z" fill="#F74780" stroke="black" stroke-width="5"/>
<path d="M1444.68 774.613C1444.68 782.067 1437.76 788.604 1428.59 788.604C1419.41 788.604 1412.5 782.067 1412.5 774.613C1412.5 767.159 1419.41 760.622 1428.59 760.622C1437.76 760.622 1444.68 767.159 1444.68 774.613Z" fill="#F74780" stroke="black" stroke-width="5"/>
<path d="M1454.15 798.944C1454.15 806.398 1447.24 812.935 1438.06 812.935C1428.89 812.935 1421.97 806.398 1421.97 798.944C1421.97 791.49 1428.89 784.953 1438.06 784.953C1447.24 784.953 1454.15 791.49 1454.15 798.944Z" fill="#F74780" stroke="black" stroke-width="5"/>
<path d="M1485.81 798.724C1485.27 806.158 1477.91 812.175 1468.76 811.506C1459.61 810.837 1453.18 803.814 1453.71 796.379C1454.25 788.945 1461.61 782.929 1470.76 783.597C1479.92 784.266 1486.34 791.29 1485.81 798.724Z" fill="#F74780" stroke="black" stroke-width="5"/>
<path d="M1494.19 774.469C1494.26 781.923 1487.4 788.521 1478.22 788.603C1469.05 788.685 1462.08 782.21 1462.01 774.757C1461.95 767.303 1468.8 760.704 1477.98 760.622C1487.15 760.54 1494.12 767.015 1494.19 774.469Z" fill="#F74780" stroke="black" stroke-width="5"/>
<path d="M1467.2 779.839C1467.2 787.293 1460.29 793.83 1451.11 793.83C1441.94 793.83 1435.02 787.293 1435.02 779.839C1435.02 772.385 1441.94 765.848 1451.11 765.848C1460.29 765.848 1467.2 772.385 1467.2 779.839Z" fill="#FFFB07" stroke="black" stroke-width="5"/>
<path d="M133.128 870.491C133.128 877.945 126.214 884.482 117.038 884.482C107.863 884.482 100.949 877.945 100.949 870.491C100.949 863.037 107.863 856.5 117.038 856.5C126.214 856.5 133.128 863.037 133.128 870.491Z" fill="#F74780" stroke="black" stroke-width="5"/>
<path d="M111.679 887.613C111.679 895.067 104.765 901.604 95.5893 901.604C86.4135 901.604 79.5 895.067 79.5 887.613C79.5 880.159 86.4135 873.622 95.5893 873.622C104.765 873.622 111.679 880.159 111.679 887.613Z" fill="#F74780" stroke="black" stroke-width="5"/>
<path d="M121.152 911.944C121.152 919.398 114.239 925.935 105.063 925.935C95.8872 925.935 88.9736 919.398 88.9736 911.944C88.9736 904.49 95.8872 897.953 105.063 897.953C114.239 897.953 121.152 904.49 121.152 911.944Z" fill="#F74780" stroke="black" stroke-width="5"/>
<path d="M152.808 911.724C152.274 919.158 144.91 925.175 135.758 924.506C126.606 923.837 120.18 916.814 120.714 909.379C121.248 901.945 128.612 895.929 137.764 896.597C146.916 897.266 153.343 904.29 152.808 911.724Z" fill="#F74780" stroke="black" stroke-width="5"/>
<path d="M161.189 887.469C161.255 894.923 154.399 901.521 145.224 901.603C136.049 901.685 129.078 895.21 129.012 887.757C128.947 880.303 135.802 873.704 144.978 873.622C154.153 873.54 161.124 880.015 161.189 887.469Z" fill="#F74780" stroke="black" stroke-width="5"/>
<path d="M134.2 892.839C134.2 900.293 127.286 906.83 118.111 906.83C108.935 906.83 102.021 900.293 102.021 892.839C102.021 885.385 108.935 878.848 118.111 878.848C127.286 878.848 134.2 885.385 134.2 892.839Z" fill="#FFFB07" stroke="black" stroke-width="5"/>
<ellipse cx="430" cy="278.5" rx="116" ry="65.5" fill="white"/>
</g>
<rect x="10" y="10" width="1516" height="937" rx="10" stroke="black" stroke-width="20"/>
<defs>
<clipPath id="clip0_2033_8">
<rect width="1536" height="957" rx="20" fill="white"/>
</clipPath>
</defs>
</svg>
