<svg width="713" height="312" viewBox="0 0 713 312" fill="none" xmlns="http://www.w3.org/2000/svg">
<path d="M588.634 29C394.708 106.5 256.166 100.869 71.1344 29L16.134 213.5C-2.40054 289.08 22.5385 303.029 71.1342 301H357.134H571.634H657.134C705.007 296.081 713.348 277.603 691.134 213.5L612.134 15L588.634 29Z" fill="black" stroke="black" stroke-width="20"/>
<path d="M359.866 199.335C357.881 202.176 353.679 202.185 351.682 199.352L287.935 108.936C285.602 105.627 287.963 101.063 292.011 101.055L419.132 100.793C423.18 100.785 425.559 105.339 423.24 108.657L359.866 199.335Z" fill="#FFFCFC"/>
<path d="M348.715 119.255L305.589 92.3041C297.201 87.0622 286.337 93.1769 286.466 103.067L287.182 158.082C287.31 167.972 298.33 173.802 306.579 168.344L348.988 140.28C356.574 135.26 356.429 124.076 348.715 119.255Z" fill="#FF0000" stroke="black" stroke-width="5"/>
<path d="M363.928 119.255L407.054 92.3041C415.441 87.0622 426.306 93.1769 426.177 103.067L425.461 158.082C425.333 167.972 414.313 173.802 406.064 168.344L363.654 140.28C356.068 135.26 356.214 124.076 363.928 119.255Z" fill="#FF0000" stroke="black" stroke-width="5"/>
<path d="M368.5 130C368.5 137.61 362.754 143.5 356 143.5C349.246 143.5 343.5 137.61 343.5 130C343.5 122.39 349.246 116.5 356 116.5C362.754 116.5 368.5 122.39 368.5 130Z" fill="#FF0000" stroke="black" stroke-width="5"/>
</svg>
