<svg width="713" height="312" viewBox="0 0 713 312" fill="none" xmlns="http://www.w3.org/2000/svg">
<path d="M588.634 29C394.708 106.5 256.166 100.869 71.1344 29L16.134 213.5C-2.40054 289.08 22.5385 303.029 71.1342 301H357.134H571.634H657.134C705.007 296.081 713.348 277.603 691.134 213.5L612.134 15L588.634 29Z" fill="black" stroke="black" stroke-width="20"/>
<path d="M352.701 120.79C353.803 117.682 358.197 117.682 359.299 120.79L371.087 154.045C372.289 157.438 375.499 159.706 379.098 159.706L416.056 159.706C419.519 159.706 420.879 164.199 417.996 166.119L389.02 185.416C385.779 187.575 384.419 191.66 385.72 195.331L396.995 227.139C398.119 230.311 394.557 233.086 391.756 231.221L360.712 210.546C357.858 208.645 354.142 208.645 351.288 210.546L320.244 231.221C317.443 233.086 313.881 230.311 315.005 227.139L326.28 195.331C327.581 191.66 326.221 187.575 322.98 185.416L294.004 166.119C291.121 164.199 292.481 159.706 295.944 159.706L332.902 159.706C336.501 159.706 339.711 157.438 340.913 154.045L352.701 120.79Z" fill="white" stroke="#A0A312" stroke-width="5"/>
<line x1="419.932" y1="162.308" x2="671.596" y2="155.501" stroke="#A0A312" stroke-width="5"/>
<path d="M441.835 159.828C443.289 160.531 443.352 162.58 441.944 163.371L432.669 168.584C431.359 169.32 429.736 168.404 429.69 166.902L429.388 157.054C429.342 155.553 430.906 154.538 432.258 155.193L441.835 159.828Z" fill="#A0A312"/>
<path d="M457.835 159.828C459.289 160.531 459.352 162.58 457.944 163.371L448.669 168.584C447.359 169.32 445.736 168.404 445.69 166.902L445.388 157.054C445.342 155.553 446.906 154.538 448.258 155.193L457.835 159.828Z" fill="#A0A312"/>
<path d="M490.835 159.828C492.289 160.531 492.352 162.58 490.944 163.371L481.669 168.584C480.359 169.32 478.736 168.404 478.69 166.902L478.388 157.054C478.342 155.553 479.906 154.538 481.258 155.193L490.835 159.828Z" fill="#A0A312"/>
<path d="M507.835 158.828C509.289 159.531 509.352 161.58 507.944 162.371L498.669 167.584C497.359 168.32 495.736 167.404 495.69 165.902L495.388 156.054C495.342 154.553 496.906 153.538 498.258 154.193L507.835 158.828Z" fill="#A0A312"/>
<path d="M524.34 158.573C525.794 159.277 525.857 161.325 524.449 162.117L515.174 167.329C513.864 168.065 512.241 167.149 512.195 165.647L511.893 155.8C511.847 154.298 513.411 153.284 514.763 153.938L524.34 158.573Z" fill="#A0A312"/>
<path d="M541.166 157.743C542.621 158.447 542.683 160.496 541.275 161.287L532 166.5C530.69 167.236 529.067 166.319 529.021 164.818L528.719 154.97C528.673 153.469 530.237 152.454 531.589 153.109L541.166 157.743Z" fill="#A0A312"/>
<path d="M556.549 158.001C558.003 158.704 558.066 160.753 556.657 161.544L547.382 166.757C546.073 167.493 544.449 166.576 544.403 165.075L544.101 155.227C544.055 153.726 545.619 152.711 546.972 153.366L556.549 158.001Z" fill="#A0A312"/>
<path d="M573.375 157.171C574.829 157.875 574.892 159.923 573.483 160.715L564.208 165.928C562.899 166.664 561.276 165.747 561.23 164.246L560.928 154.398C560.882 152.896 562.446 151.882 563.798 152.536L573.375 157.171Z" fill="#A0A312"/>
<path d="M656.549 154.001C658.003 154.704 658.066 156.753 656.657 157.544L647.382 162.757C646.073 163.493 644.449 162.576 644.403 161.075L644.101 151.227C644.055 149.726 645.619 148.711 646.972 149.366L656.549 154.001Z" fill="#A0A312"/>
<path d="M673.375 153.171C674.829 153.875 674.892 155.923 673.483 156.715L664.208 161.928C662.899 162.664 661.276 161.747 661.23 160.246L660.928 150.398C660.882 148.896 662.446 147.882 663.798 148.536L673.375 153.171Z" fill="#A0A312"/>
<path d="M590.549 156.001C592.003 156.704 592.066 158.753 590.657 159.544L581.382 164.757C580.073 165.493 578.449 164.576 578.403 163.075L578.101 153.227C578.055 151.726 579.619 150.711 580.972 151.366L590.549 156.001Z" fill="#A0A312"/>
<path d="M607.375 155.171C608.829 155.875 608.892 157.923 607.483 158.715L598.208 163.928C596.899 164.664 595.276 163.747 595.23 162.246L594.928 152.398C594.882 150.896 596.446 149.882 597.798 150.536L607.375 155.171Z" fill="#A0A312"/>
<path d="M624.549 156.001C626.003 156.704 626.066 158.753 624.657 159.544L615.382 164.757C614.073 165.493 612.449 164.576 612.403 163.075L612.101 153.227C612.055 151.726 613.619 150.711 614.972 151.366L624.549 156.001Z" fill="#A0A312"/>
<path d="M641.375 155.171C642.829 155.875 642.892 157.923 641.483 158.715L632.208 163.928C630.899 164.664 629.276 163.747 629.23 162.246L628.928 152.398C628.882 150.896 630.446 149.882 631.798 150.536L641.375 155.171Z" fill="#A0A312"/>
<path d="M474.835 159.828C476.289 160.531 476.352 162.58 474.944 163.371L465.669 168.584C464.359 169.32 462.736 168.404 462.69 166.902L462.388 157.054C462.342 155.553 463.906 154.538 465.258 155.193L474.835 159.828Z" fill="#A0A312"/>
<line x1="291.18" y1="161.087" x2="39.4258" y2="160.223" stroke="#A0A312" stroke-width="5"/>
<path d="M269.212 162.898C267.78 162.15 267.779 160.101 269.211 159.353L278.641 154.425C279.972 153.729 281.567 154.695 281.567 156.197L281.569 166.049C281.569 167.552 279.975 168.518 278.643 167.823L269.212 162.898Z" fill="#A0A312"/>
<path d="M253.219 162.411C251.787 161.663 251.787 159.614 253.219 158.865L262.648 153.937C263.98 153.242 265.574 154.207 265.575 155.71L265.576 165.562C265.577 167.064 263.982 168.03 262.651 167.335L253.219 162.411Z" fill="#A0A312"/>
<path d="M220.235 161.405C218.803 160.658 218.802 158.608 220.234 157.86L229.664 152.932C230.995 152.236 232.59 153.202 232.59 154.704L232.592 164.556C232.592 166.059 230.998 167.025 229.666 166.33L220.235 161.405Z" fill="#A0A312"/>
<path d="M203.212 161.887C201.78 161.139 201.78 159.09 203.211 158.341L212.641 153.414C213.972 152.718 215.567 153.684 215.567 155.186L215.569 165.038C215.569 166.54 213.975 167.507 212.643 166.811L203.212 161.887Z" fill="#A0A312"/>
<path d="M186.707 161.639C185.275 160.891 185.275 158.842 186.706 158.093L196.136 153.166C197.467 152.47 199.062 153.435 199.062 154.938L199.064 164.79C199.064 166.292 197.47 167.258 196.138 166.563L186.707 161.639Z" fill="#A0A312"/>
<path d="M169.863 161.955C168.431 161.207 168.431 159.158 169.863 158.41L179.292 153.482C180.624 152.786 182.218 153.752 182.218 155.254L182.22 165.106C182.221 166.609 180.626 167.575 179.295 166.879L169.863 161.955Z" fill="#A0A312"/>
<path d="M154.496 161.229C153.064 160.482 153.064 158.432 154.495 157.684L163.925 152.756C165.256 152.06 166.851 153.026 166.851 154.528L166.853 164.381C166.853 165.883 165.259 166.849 163.927 166.154L154.496 161.229Z" fill="#A0A312"/>
<path d="M137.652 161.546C136.22 160.798 136.22 158.749 137.652 158L147.081 153.073C148.413 152.377 150.007 153.342 150.008 154.845L150.009 164.697C150.01 166.199 148.415 167.166 147.084 166.47L137.652 161.546Z" fill="#A0A312"/>
<path d="M54.4207 162.181C52.9885 161.433 52.9882 159.384 54.42 158.635L63.8495 153.708C65.181 153.012 66.7756 153.978 66.7758 155.48L66.7776 165.332C66.7779 166.834 65.1836 167.801 63.8519 167.105L54.4207 162.181Z" fill="#A0A312"/>
<path d="M37.577 162.497C36.1448 161.749 36.1445 159.7 37.5763 158.952L47.0058 154.024C48.3373 153.328 49.9319 154.294 49.9321 155.796L49.9339 165.648C49.9341 167.151 48.3399 168.117 47.0082 167.422L37.577 162.497Z" fill="#A0A312"/>
<path d="M120.451 162.193C119.019 161.445 119.018 159.395 120.45 158.647L129.88 153.719C131.211 153.024 132.806 153.989 132.806 155.492L132.808 165.344C132.808 166.846 131.214 167.812 129.882 167.117L120.451 162.193Z" fill="#A0A312"/>
<path d="M103.607 162.509C102.175 161.761 102.175 159.712 103.607 158.963L113.036 154.036C114.368 153.34 115.962 154.306 115.962 155.808L115.964 165.66C115.964 167.162 114.37 168.129 113.038 167.433L103.607 162.509Z" fill="#A0A312"/>
<path d="M86.4666 161.157C85.0344 160.409 85.0341 158.36 86.4659 157.611L95.8954 152.683C97.2269 151.988 98.8215 152.953 98.8217 154.456L98.8235 164.308C98.8238 165.81 97.2295 166.776 95.8978 166.081L86.4666 161.157Z" fill="#A0A312"/>
<path d="M69.6228 161.473C68.1907 160.725 68.1904 158.676 69.6222 157.928L79.0517 153C80.3832 152.304 81.9778 153.27 81.978 154.772L81.9798 164.624C81.98 166.126 80.3858 167.093 79.0541 166.397L69.6228 161.473Z" fill="#A0A312"/>
<path d="M236.227 161.893C234.795 161.145 234.795 159.096 236.227 158.347L245.656 153.42C246.988 152.724 248.582 153.689 248.582 155.192L248.584 165.044C248.584 166.546 246.99 167.512 245.658 166.817L236.227 161.893Z" fill="#A0A312"/>
</svg>
