<svg width="713" height="312" viewBox="0 0 713 312" fill="none" xmlns="http://www.w3.org/2000/svg">
<path d="M588.634 29.5C394.708 107 256.166 101.369 71.1344 29.5L16.134 214C-2.40054 289.58 22.5385 303.529 71.1342 301.5H357.134H571.634H657.134C705.007 296.581 713.348 278.103 691.134 214L612.134 15.5L588.634 29.5Z" fill="white" stroke="black" stroke-width="20"/>
<path d="M311 94.7515H371.5L384 119L362.75 147.75L363.5 153.5L380.5 250.5L341.5 279L315 250.5L325.1 153.5L300.5 119L311 94.7515Z" fill="#1A1DA4"/>
<path d="M483.5 292L441 83L456 74.5L503 59.5L530.5 49.5L564.5 36.5L578.5 31.5L594.5 24L613 14L688.5 215L693.5 232.5L699.5 250.5V269V279V292H681.5H483.5Z" fill="#1A1DA4"/>
<path d="M123.5 49.5L81 34.5H71L22 195.5L9 230V268L26.5 292L53 297.5H110.5H155.5H249L274 83L234 79.5L182 67.5L123.5 49.5Z" fill="#1A1DA4"/>
<path d="M325.1 153.5L341.5 176.5L362.75 147.75M325.1 153.5L300.5 119L311 94.7515H371.5L384 119L362.75 147.75M325.1 153.5L315 250.5L341.5 279L380.5 250.5L363.5 153.5L362.75 147.75M441 83L483.5 292H681.5H699.5V279V269V250.5L693.5 232.5L688.5 215L613 14L594.5 24L578.5 31.5L564.5 36.5L530.5 49.5L503 59.5L456 74.5L441 83ZM81 34.5L123.5 49.5L182 67.5L234 79.5L274 83L249 297.5H155.5H110.5H53L26.5 292L9 268V230L22 195.5L71 34.5H81Z" stroke="black" stroke-width="10"/>
</svg>
