<svg width="713" height="312" viewBox="0 0 713 312" fill="none" xmlns="http://www.w3.org/2000/svg">
<path d="M588.634 29C394.708 106.5 256.166 100.869 71.1344 29L16.134 213.5C-2.40054 289.08 22.5385 303.029 71.1342 301H357.134H571.634H657.134C705.007 296.081 713.348 277.603 691.134 213.5L612.134 15L588.634 29Z" fill="#E84075" stroke="black" stroke-width="20"/>
<path d="M26.5 184.5L33 158.5H667L677.5 184.5H26.5Z" fill="#D9D9D9" stroke="black" stroke-width="10"/>
<path d="M692 214H16.5L11.5 248H702L692 214Z" fill="#D9D9D9"/>
<path d="M702 270.5H11.5L16.5 288.5H696.5L702 270.5Z" fill="#D9D9D9"/>
<path d="M36 136H660.5L645.5 106.5H46.5L36 136Z" fill="#D9D9D9"/>
<path d="M692 214H16.5L11.5 248H702L692 214Z" stroke="black" stroke-width="10"/>
<path d="M702 270.5H11.5L16.5 288.5H696.5L702 270.5Z" stroke="black" stroke-width="10"/>
<path d="M36 136H660.5L645.5 106.5H46.5L36 136Z" stroke="black" stroke-width="10"/>
</svg>
