<svg width="713" height="312" viewBox="0 0 713 312" fill="none" xmlns="http://www.w3.org/2000/svg">
<path d="M588.634 29C394.708 106.5 256.166 100.869 71.1344 29L16.134 213.5C-2.40054 289.08 22.5385 303.029 71.1342 301H357.134H571.634H657.134C705.007 296.081 713.348 277.603 691.134 213.5L612.134 15L588.634 29Z" fill="white" stroke="black" stroke-width="20"/>
<path d="M96 292.5L153.5 68L263 90.5L223.5 292.5H96Z" fill="#FF0000" stroke="black" stroke-width="5"/>
<path d="M583 296L526.877 64L420 87.2517L458.554 296H583Z" fill="#FF0000" stroke="black" stroke-width="5"/>
<path d="M383.837 90.5L303.704 94.0617L293.75 292.5H402.75L383.837 90.5Z" fill="#FF0000" stroke="black" stroke-width="5"/>
<path d="M410.802 133.665C403.857 112.255 377.562 102.453 347.884 150.794C366.633 178.627 372.609 183.98 399.691 177.557C406.635 172.204 417.746 155.075 410.802 133.665Z" fill="black" stroke="black" stroke-width="5"/>
<path d="M287.119 133.665C293.81 112.255 319.15 102.453 347.749 150.794C329.681 178.627 323.923 183.98 297.825 177.557C291.134 172.204 280.427 155.075 287.119 133.665Z" fill="black" stroke="black" stroke-width="5"/>
</svg>
