<svg width="801" height="169" viewBox="0 0 801 169" fill="none" xmlns="http://www.w3.org/2000/svg">
<path d="M92.1576 16.5047L149.924 113.684C152.302 117.684 149.419 122.75 144.767 122.75H29.2334C24.5807 122.75 21.6984 117.684 24.0759 113.684L81.8424 16.5047C84.168 12.5925 89.832 12.5925 92.1576 16.5047Z" fill="#934E4E" stroke="black" stroke-width="8"/>
<path d="M91.7513 47.1122L121.994 98.9796C124.131 102.646 121.487 107.25 117.242 107.25H56.7578C52.5134 107.25 49.8686 102.646 52.0065 98.9797L82.2487 47.1122C84.3708 43.4726 89.6292 43.4726 91.7513 47.1122Z" fill="#FF90A8" stroke="black" stroke-width="5"/>
<path d="M719.158 16.5047L776.924 113.684C779.302 117.684 776.419 122.75 771.767 122.75H656.233C651.581 122.75 648.698 117.684 651.076 113.684L708.842 16.5047C711.168 12.5925 716.832 12.5925 719.158 16.5047Z" fill="#934E4E" stroke="black" stroke-width="8"/>
<path d="M718.751 47.1122L748.994 98.9796C751.131 102.646 748.487 107.25 744.242 107.25H683.758C679.513 107.25 676.869 102.646 679.006 98.9797L709.249 47.1122C711.371 43.4726 716.629 43.4726 718.751 47.1122Z" fill="#FF90A8" stroke="black" stroke-width="5"/>
</svg>
