<svg width="800" height="233" viewBox="0 0 800 233" fill="none" xmlns="http://www.w3.org/2000/svg">
<path d="M81.769 74.1262L140.15 143.127C141.525 144.752 140.37 147.242 138.242 147.242H21.4793C19.3509 147.242 18.196 144.752 19.5708 143.127L77.9519 74.1262C78.9506 72.9459 80.7704 72.9459 81.769 74.1262Z" fill="#FFCC00" stroke="black" stroke-width="5"/>
<path d="M81.769 217.863L140.15 148.862C141.525 147.237 140.37 144.747 138.242 144.747H21.4793C19.3509 144.747 18.196 147.237 19.5708 148.862L77.9519 217.863C78.9506 219.043 80.7704 219.043 81.769 217.863Z" fill="#FFCC00" stroke="black" stroke-width="5"/>
<rect x="40.1484" y="139.328" width="79.4241" height="18.8306" fill="#FFCC00"/>
<path d="M137.911 143.043C140.616 145.079 140.472 149.206 137.628 151.158L126.116 159.059C122.726 161.386 118.198 158.955 118.34 154.883L118.904 138.746C119.046 134.675 123.739 132.381 126.964 134.807L137.911 143.043Z" fill="#FFCC00"/>
<path d="M22.1275 143.043C19.4222 145.079 19.5663 149.206 22.411 151.158L33.9223 159.059C37.3127 161.386 41.8404 158.955 41.6982 154.883L41.1344 138.746C40.9921 134.675 36.2994 132.381 33.075 134.807L22.1275 143.043Z" fill="#FFCC00"/>
<path d="M81.2174 114.457L107.9 142.065C109.434 143.652 108.309 146.302 106.102 146.302H52.7373C50.5305 146.302 49.406 143.652 50.9396 142.065L77.6222 114.457C78.6049 113.44 80.2347 113.44 81.2174 114.457Z" fill="#CDABEB" stroke="black" stroke-width="5"/>
<path d="M81.433 173.674L108.116 146.067C109.649 144.48 108.525 141.829 106.318 141.829H52.9528C50.746 141.829 49.6216 144.48 51.1552 146.067L77.8378 173.674C78.8205 174.691 80.4503 174.691 81.433 173.674Z" fill="#CDABEB" stroke="black" stroke-width="5"/>
<path d="M57.6926 137.393H101.87V146.562H57.6926V137.393Z" fill="#CDABEB"/>
<path d="M91.9598 148.271C95.1297 150.463 94.9392 155.237 91.5977 157.344V157.344C87.8845 159.686 83.164 157.03 83.337 152.697V152.697C83.5099 148.364 88.4373 145.834 91.9598 148.271V148.271Z" fill="#CDABEB"/>
<path d="M51.4608 144.321C50.2568 143.519 50.3287 141.717 51.5954 140.948L64.6319 133.033C65.997 132.204 67.7007 133.183 67.6378 134.76L66.9927 150.922C66.9298 152.499 65.1498 153.432 63.8523 152.568L51.4608 144.321Z" fill="#CDABEB"/>
<path d="M108.538 144.504C109.742 143.703 109.67 141.901 108.403 141.132L95.3668 133.216C94.0017 132.388 92.298 133.366 92.361 134.943L93.006 151.106C93.0689 152.682 94.8489 153.615 96.1465 152.752L108.538 144.504Z" fill="#CDABEB"/>
<path d="M246.769 27.1262L305.15 96.1273C306.525 97.7521 305.37 100.242 303.242 100.242H186.479C184.351 100.242 183.196 97.7521 184.571 96.1273L242.952 27.1262C243.951 25.9459 245.77 25.9459 246.769 27.1262Z" fill="#FFCC00" stroke="black" stroke-width="5"/>
<path d="M246.769 170.863L305.15 101.862C306.525 100.237 305.37 97.7471 303.242 97.7471H186.479C184.351 97.7471 183.196 100.237 184.571 101.862L242.952 170.863C243.951 172.043 245.77 172.043 246.769 170.863Z" fill="#FFCC00" stroke="black" stroke-width="5"/>
<rect x="205.148" y="92.3281" width="79.4241" height="18.8306" fill="#FFCC00"/>
<path d="M302.911 96.0433C305.616 98.0786 305.472 102.206 302.628 104.158L291.116 112.059C287.726 114.386 283.198 111.955 283.34 107.883L283.904 91.7462C284.046 87.6749 288.739 85.3812 291.964 87.8071L302.911 96.0433Z" fill="#FFCC00"/>
<path d="M187.127 96.0433C184.422 98.0786 184.566 102.206 187.411 104.158L198.922 112.059C202.313 114.386 206.84 111.955 206.698 107.883L206.134 91.7462C205.992 87.6749 201.299 85.3812 198.075 87.8071L187.127 96.0433Z" fill="#FFCC00"/>
<path d="M246.217 67.4573L272.9 95.0648C274.434 96.6515 273.309 99.3022 271.102 99.3022H217.737C215.53 99.3022 214.406 96.6515 215.94 95.0648L242.622 67.4573C243.605 66.4405 245.235 66.4405 246.217 67.4573Z" fill="#CDABEB" stroke="black" stroke-width="5"/>
<path d="M246.433 126.674L273.116 99.0666C274.649 97.4798 273.525 94.8292 271.318 94.8292H217.953C215.746 94.8292 214.622 97.4798 216.155 99.0666L242.838 126.674C243.82 127.691 245.45 127.691 246.433 126.674Z" fill="#CDABEB" stroke="black" stroke-width="5"/>
<path d="M222.693 90.3929H266.87V99.562H222.693V90.3929Z" fill="#CDABEB"/>
<path d="M256.96 101.271C260.13 103.463 259.939 108.237 256.598 110.344V110.344C252.885 112.686 248.164 110.03 248.337 105.697V105.697C248.51 101.364 253.437 98.8345 256.96 101.271V101.271Z" fill="#CDABEB"/>
<path d="M216.461 97.3208C215.257 96.5194 215.329 94.7175 216.595 93.9484L229.632 86.0332C230.997 85.2044 232.701 86.1828 232.638 87.7596L231.993 103.922C231.93 105.499 230.15 106.432 228.852 105.568L216.461 97.3208Z" fill="#CDABEB"/>
<path d="M273.538 97.504C274.742 96.7026 274.67 94.9007 273.403 94.1316L260.367 86.2164C259.002 85.3876 257.298 86.366 257.361 87.9428L258.006 104.106C258.069 105.682 259.849 106.615 261.146 105.752L273.538 97.504Z" fill="#CDABEB"/>
<path d="M401.769 6.12618L460.15 75.1273C461.525 76.7521 460.37 79.2421 458.242 79.2421H341.479C339.351 79.2421 338.196 76.7521 339.571 75.1273L397.952 6.12619C398.951 4.9459 400.77 4.9459 401.769 6.12618Z" fill="#FFCC00" stroke="black" stroke-width="5"/>
<path d="M401.769 149.863L460.15 80.8619C461.525 79.2371 460.37 76.7471 458.242 76.7471H341.479C339.351 76.7471 338.196 79.2371 339.571 80.8619L397.952 149.863C398.951 151.043 400.77 151.043 401.769 149.863Z" fill="#FFCC00" stroke="black" stroke-width="5"/>
<rect x="360.148" y="71.3281" width="79.4241" height="18.8306" fill="#FFCC00"/>
<path d="M457.911 75.0433C460.616 77.0786 460.472 81.2056 457.628 83.158L446.116 91.0588C442.726 93.3859 438.198 90.9546 438.34 86.8832L438.904 70.7462C439.046 66.6749 443.739 64.3812 446.964 66.8071L457.911 75.0433Z" fill="#FFCC00"/>
<path d="M342.127 75.0433C339.422 77.0786 339.566 81.2056 342.411 83.158L353.922 91.0588C357.313 93.3859 361.84 90.9546 361.698 86.8832L361.134 70.7462C360.992 66.6749 356.299 64.3812 353.075 66.8071L342.127 75.0433Z" fill="#FFCC00"/>
<path d="M401.217 46.4573L427.9 74.0648C429.434 75.6515 428.309 78.3022 426.102 78.3022H372.737C370.53 78.3022 369.406 75.6515 370.94 74.0648L397.622 46.4573C398.605 45.4405 400.235 45.4405 401.217 46.4573Z" fill="#CDABEB" stroke="black" stroke-width="5"/>
<path d="M401.433 105.674L428.116 78.0666C429.649 76.4798 428.525 73.8292 426.318 73.8292H372.953C370.746 73.8292 369.622 76.4798 371.155 78.0666L397.838 105.674C398.82 106.691 400.45 106.691 401.433 105.674Z" fill="#CDABEB" stroke="black" stroke-width="5"/>
<path d="M377.693 69.3929H421.87V78.562H377.693V69.3929Z" fill="#CDABEB"/>
<path d="M411.96 80.2706C415.13 82.4629 414.939 87.2373 411.598 89.3445V89.3445C407.885 91.686 403.164 89.0303 403.337 84.6972V84.6972C403.51 80.364 408.437 77.8345 411.96 80.2706V80.2706Z" fill="#CDABEB"/>
<path d="M371.461 76.3208C370.257 75.5194 370.329 73.7175 371.595 72.9484L384.632 65.0332C385.997 64.2044 387.701 65.1828 387.638 66.7596L386.993 82.9224C386.93 84.4992 385.15 85.4321 383.852 84.5684L371.461 76.3208Z" fill="#CDABEB"/>
<path d="M428.538 76.504C429.742 75.7026 429.67 73.9007 428.403 73.1316L415.367 65.2164C414.002 64.3876 412.298 65.366 412.361 66.9428L413.006 83.1056C413.069 84.6824 414.849 85.6153 416.146 84.7516L428.538 76.504Z" fill="#CDABEB"/>
<path d="M556.769 23.1262L615.15 92.1273C616.525 93.7521 615.37 96.2421 613.242 96.2421H496.479C494.351 96.2421 493.196 93.7521 494.571 92.1273L552.952 23.1262C553.951 21.9459 555.77 21.9459 556.769 23.1262Z" fill="#FFCC00" stroke="black" stroke-width="5"/>
<path d="M556.769 166.863L615.15 97.8619C616.525 96.2371 615.37 93.7471 613.242 93.7471H496.479C494.351 93.7471 493.196 96.2371 494.571 97.8619L552.952 166.863C553.951 168.043 555.77 168.043 556.769 166.863Z" fill="#FFCC00" stroke="black" stroke-width="5"/>
<rect x="515.148" y="88.3281" width="79.4241" height="18.8306" fill="#FFCC00"/>
<path d="M612.911 92.0433C615.616 94.0786 615.472 98.2056 612.628 100.158L601.116 108.059C597.726 110.386 593.198 107.955 593.34 103.883L593.904 87.7462C594.046 83.6749 598.739 81.3812 601.964 83.8071L612.911 92.0433Z" fill="#FFCC00"/>
<path d="M497.127 92.0433C494.422 94.0786 494.566 98.2056 497.411 100.158L508.922 108.059C512.313 110.386 516.84 107.955 516.698 103.883L516.134 87.7462C515.992 83.6749 511.299 81.3812 508.075 83.8071L497.127 92.0433Z" fill="#FFCC00"/>
<path d="M556.217 63.4573L582.9 91.0648C584.434 92.6515 583.309 95.3022 581.102 95.3022H527.737C525.53 95.3022 524.406 92.6515 525.94 91.0648L552.622 63.4573C553.605 62.4405 555.235 62.4405 556.217 63.4573Z" fill="#CDABEB" stroke="black" stroke-width="5"/>
<path d="M556.433 122.674L583.116 95.0666C584.649 93.4798 583.525 90.8292 581.318 90.8292H527.953C525.746 90.8292 524.622 93.4798 526.155 95.0666L552.838 122.674C553.82 123.691 555.45 123.691 556.433 122.674Z" fill="#CDABEB" stroke="black" stroke-width="5"/>
<path d="M532.693 86.3929H576.87V95.562H532.693V86.3929Z" fill="#CDABEB"/>
<path d="M566.96 97.2706C570.13 99.4629 569.939 104.237 566.598 106.344V106.344C562.885 108.686 558.164 106.03 558.337 101.697V101.697C558.51 97.364 563.437 94.8345 566.96 97.2706V97.2706Z" fill="#CDABEB"/>
<path d="M526.461 93.3208C525.257 92.5194 525.329 90.7175 526.595 89.9484L539.632 82.0332C540.997 81.2044 542.701 82.1828 542.638 83.7596L541.993 99.9224C541.93 101.499 540.15 102.432 538.852 101.568L526.461 93.3208Z" fill="#CDABEB"/>
<path d="M583.538 93.504C584.742 92.7026 584.67 90.9007 583.403 90.1316L570.367 82.2164C569.002 81.3876 567.298 82.366 567.361 83.9428L568.006 100.106C568.069 101.682 569.849 102.615 571.146 101.752L583.538 93.504Z" fill="#CDABEB"/>
<path d="M721.769 83.1262L780.15 152.127C781.525 153.752 780.37 156.242 778.242 156.242H661.479C659.351 156.242 658.196 153.752 659.571 152.127L717.952 83.1262C718.951 81.9459 720.77 81.9459 721.769 83.1262Z" fill="#FFCC00" stroke="black" stroke-width="5"/>
<path d="M721.769 226.863L780.15 157.862C781.525 156.237 780.37 153.747 778.242 153.747H661.479C659.351 153.747 658.196 156.237 659.571 157.862L717.952 226.863C718.951 228.043 720.77 228.043 721.769 226.863Z" fill="#FFCC00" stroke="black" stroke-width="5"/>
<rect x="680.148" y="148.328" width="79.4241" height="18.8306" fill="#FFCC00"/>
<path d="M777.911 152.043C780.616 154.079 780.472 158.206 777.628 160.158L766.116 168.059C762.726 170.386 758.198 167.955 758.34 163.883L758.904 147.746C759.046 143.675 763.739 141.381 766.964 143.807L777.911 152.043Z" fill="#FFCC00"/>
<path d="M662.127 152.043C659.422 154.079 659.566 158.206 662.411 160.158L673.922 168.059C677.313 170.386 681.84 167.955 681.698 163.883L681.134 147.746C680.992 143.675 676.299 141.381 673.075 143.807L662.127 152.043Z" fill="#FFCC00"/>
<path d="M721.217 123.457L747.9 151.065C749.434 152.652 748.309 155.302 746.102 155.302H692.737C690.53 155.302 689.406 152.652 690.94 151.065L717.622 123.457C718.605 122.44 720.235 122.44 721.217 123.457Z" fill="#CDABEB" stroke="black" stroke-width="5"/>
<path d="M721.433 182.674L748.116 155.067C749.649 153.48 748.525 150.829 746.318 150.829H692.953C690.746 150.829 689.622 153.48 691.155 155.067L717.838 182.674C718.82 183.691 720.45 183.691 721.433 182.674Z" fill="#CDABEB" stroke="black" stroke-width="5"/>
<path d="M697.693 146.393H741.87V155.562H697.693V146.393Z" fill="#CDABEB"/>
<path d="M731.96 157.271C735.13 159.463 734.939 164.237 731.598 166.344V166.344C727.885 168.686 723.164 166.03 723.337 161.697V161.697C723.51 157.364 728.437 154.834 731.96 157.271V157.271Z" fill="#CDABEB"/>
<path d="M691.461 153.321C690.257 152.519 690.329 150.717 691.595 149.948L704.632 142.033C705.997 141.204 707.701 142.183 707.638 143.76L706.993 159.922C706.93 161.499 705.15 162.432 703.852 161.568L691.461 153.321Z" fill="#CDABEB"/>
<path d="M748.538 153.504C749.742 152.703 749.67 150.901 748.403 150.132L735.367 142.216C734.002 141.388 732.298 142.366 732.361 143.943L733.006 160.106C733.069 161.682 734.849 162.615 736.146 161.752L748.538 153.504Z" fill="#CDABEB"/>
<path d="M30 146.5C30 149.408 27.229 152 23.5 152C19.771 152 17 149.408 17 146.5C17 143.592 19.771 141 23.5 141C27.229 141 30 143.592 30 146.5Z" fill="#3BB379" stroke="black" stroke-width="2"/>
<path d="M143 146.5C143 149.408 140.229 152 136.5 152C132.771 152 130 149.408 130 146.5C130 143.592 132.771 141 136.5 141C140.229 141 143 143.592 143 146.5Z" fill="#3BB379" stroke="black" stroke-width="2"/>
<path d="M62 143.5C62 146.408 59.229 149 55.5 149C51.771 149 49 146.408 49 143.5C49 140.592 51.771 138 55.5 138C59.229 138 62 140.592 62 143.5Z" fill="#9445AE" stroke="black" stroke-width="2"/>
<path d="M111 143.5C111 146.408 108.229 149 104.5 149C100.771 149 98 146.408 98 143.5C98 140.592 100.771 138 104.5 138C108.229 138 111 140.592 111 143.5Z" fill="#9445AE" stroke="black" stroke-width="2"/>
<path d="M349 78.5C349 81.408 346.229 84 342.5 84C338.771 84 336 81.408 336 78.5C336 75.592 338.771 73 342.5 73C346.229 73 349 75.592 349 78.5Z" fill="#3BB379" stroke="black" stroke-width="2"/>
<path d="M462 78.5C462 81.408 459.229 84 455.5 84C451.771 84 449 81.408 449 78.5C449 75.592 451.771 73 455.5 73C459.229 73 462 75.592 462 78.5Z" fill="#3BB379" stroke="black" stroke-width="2"/>
<path d="M381 75.5C381 78.408 378.229 81 374.5 81C370.771 81 368 78.408 368 75.5C368 72.592 370.771 70 374.5 70C378.229 70 381 72.592 381 75.5Z" fill="#9445AE" stroke="black" stroke-width="2"/>
<path d="M430 75.5C430 78.408 427.229 81 423.5 81C419.771 81 417 78.408 417 75.5C417 72.592 419.771 70 423.5 70C427.229 70 430 72.592 430 75.5Z" fill="#9445AE" stroke="black" stroke-width="2"/>
<path d="M505 95.5C505 98.408 502.229 101 498.5 101C494.771 101 492 98.408 492 95.5C492 92.592 494.771 90 498.5 90C502.229 90 505 92.592 505 95.5Z" fill="#3BB379" stroke="black" stroke-width="2"/>
<path d="M618 95.5C618 98.408 615.229 101 611.5 101C607.771 101 605 98.408 605 95.5C605 92.592 607.771 90 611.5 90C615.229 90 618 92.592 618 95.5Z" fill="#3BB379" stroke="black" stroke-width="2"/>
<path d="M537 92.5C537 95.408 534.229 98 530.5 98C526.771 98 524 95.408 524 92.5C524 89.592 526.771 87 530.5 87C534.229 87 537 89.592 537 92.5Z" fill="#9445AE" stroke="black" stroke-width="2"/>
<path d="M586 92.5C586 95.408 583.229 98 579.5 98C575.771 98 573 95.408 573 92.5C573 89.592 575.771 87 579.5 87C583.229 87 586 89.592 586 92.5Z" fill="#9445AE" stroke="black" stroke-width="2"/>
<path d="M670 155.5C670 158.408 667.229 161 663.5 161C659.771 161 657 158.408 657 155.5C657 152.592 659.771 150 663.5 150C667.229 150 670 152.592 670 155.5Z" fill="#3BB379" stroke="black" stroke-width="2"/>
<path d="M783 155.5C783 158.408 780.229 161 776.5 161C772.771 161 770 158.408 770 155.5C770 152.592 772.771 150 776.5 150C780.229 150 783 152.592 783 155.5Z" fill="#3BB379" stroke="black" stroke-width="2"/>
<path d="M702 152.5C702 155.408 699.229 158 695.5 158C691.771 158 689 155.408 689 152.5C689 149.592 691.771 147 695.5 147C699.229 147 702 149.592 702 152.5Z" fill="#9445AE" stroke="black" stroke-width="2"/>
<path d="M751 152.5C751 155.408 748.229 158 744.5 158C740.771 158 738 155.408 738 152.5C738 149.592 740.771 147 744.5 147C748.229 147 751 149.592 751 152.5Z" fill="#9445AE" stroke="black" stroke-width="2"/>
<path d="M195 98.5C195 101.408 192.229 104 188.5 104C184.771 104 182 101.408 182 98.5C182 95.592 184.771 93 188.5 93C192.229 93 195 95.592 195 98.5Z" fill="#3BB379" stroke="black" stroke-width="2"/>
<path d="M308 98.5C308 101.408 305.229 104 301.5 104C297.771 104 295 101.408 295 98.5C295 95.592 297.771 93 301.5 93C305.229 93 308 95.592 308 98.5Z" fill="#3BB379" stroke="black" stroke-width="2"/>
<path d="M227 95.5C227 98.408 224.229 101 220.5 101C216.771 101 214 98.408 214 95.5C214 92.592 216.771 90 220.5 90C224.229 90 227 92.592 227 95.5Z" fill="#9445AE" stroke="black" stroke-width="2"/>
<path d="M276 95.5C276 98.408 273.229 101 269.5 101C265.771 101 263 98.408 263 95.5C263 92.592 265.771 90 269.5 90C273.229 90 276 92.592 276 95.5Z" fill="#9445AE" stroke="black" stroke-width="2"/>
</svg>
