<svg width="815" height="279" viewBox="0 0 815 279" fill="none" xmlns="http://www.w3.org/2000/svg">
<path d="M96.963 132.788C104.982 145.681 100.755 162.957 87.3001 171.325C73.8451 179.693 56.4806 175.846 48.4618 162.953C40.4431 150.06 44.6697 132.783 58.1247 124.415C71.5797 116.047 88.9443 119.895 96.963 132.788Z" fill="#F74780" stroke="black" stroke-width="5"/>
<path d="M83.0484 178.27C91.0672 191.163 86.8405 208.439 73.3856 216.808C59.9306 225.176 42.566 221.328 34.5473 208.435C26.5286 195.542 30.7552 178.266 44.2102 169.898C57.6652 161.53 75.0297 165.377 83.0484 178.27Z" fill="#F74780" stroke="black" stroke-width="5"/>
<path d="M119.96 207.649C127.979 220.542 123.752 237.818 110.297 246.186C96.8419 254.555 79.4774 250.707 71.4587 237.814C63.4399 224.921 67.6666 207.645 81.1215 199.276C94.5765 190.908 111.941 194.756 119.96 207.649Z" fill="#F74780" stroke="black" stroke-width="5"/>
<path d="M164.728 179.491C171.879 192.873 166.439 209.675 152.35 216.951C138.26 224.227 121.1 219.097 113.948 205.714C106.797 192.332 112.238 175.529 126.327 168.253C140.416 160.977 157.577 166.108 164.728 179.491Z" fill="#F74780" stroke="black" stroke-width="5"/>
<path d="M153.145 134.345C161.267 147.173 157.191 164.502 143.819 173.001C130.446 181.501 113.063 177.811 104.941 164.984C96.8185 152.156 100.894 134.827 114.267 126.328C127.64 117.828 145.023 121.517 153.145 134.345Z" fill="#F74780" stroke="black" stroke-width="5"/>
<path d="M120.043 166.504C128.062 179.397 123.835 196.673 110.38 205.042C96.9252 213.41 79.5606 209.562 71.5419 196.669C63.5232 183.776 67.7498 166.5 81.2048 158.132C94.6598 149.764 112.024 153.611 120.043 166.504Z" fill="#FFFB07" stroke="black" stroke-width="5"/>
<path d="M236.963 77.7876C244.982 90.6806 240.755 107.957 227.3 116.325C213.845 124.693 196.481 120.846 188.462 107.953C180.443 95.0597 184.67 77.7834 198.125 69.4152C211.58 61.0469 228.944 64.8946 236.963 77.7876Z" fill="#F74780" stroke="black" stroke-width="5"/>
<path d="M223.048 123.27C231.067 136.163 226.841 153.439 213.386 161.808C199.931 170.176 182.566 166.328 174.547 153.435C166.529 140.542 170.755 123.266 184.21 114.898C197.665 106.53 215.03 110.377 223.048 123.27Z" fill="#F74780" stroke="black" stroke-width="5"/>
<path d="M259.96 152.649C267.979 165.542 263.752 182.818 250.297 191.186C236.842 199.555 219.477 195.707 211.459 182.814C203.44 169.921 207.667 152.645 221.122 144.276C234.577 135.908 251.941 139.756 259.96 152.649Z" fill="#F74780" stroke="black" stroke-width="5"/>
<path d="M304.728 124.491C311.879 137.873 306.439 154.675 292.35 161.951C278.26 169.227 261.1 164.097 253.948 150.714C246.797 137.332 252.238 120.529 266.327 113.253C280.416 105.977 297.577 111.108 304.728 124.491Z" fill="#F74780" stroke="black" stroke-width="5"/>
<path d="M293.145 79.3453C301.267 92.1733 297.191 109.502 283.819 118.001C270.446 126.501 253.063 122.811 244.941 109.984C236.819 97.1556 240.894 79.8274 254.267 71.3278C267.64 62.8283 285.023 66.5174 293.145 79.3453Z" fill="#F74780" stroke="black" stroke-width="5"/>
<path d="M260.043 111.504C268.062 124.397 263.835 141.673 250.38 150.042C236.925 158.41 219.561 154.562 211.542 141.669C203.523 128.776 207.75 111.5 221.205 103.132C234.66 94.7635 252.024 98.6113 260.043 111.504Z" fill="#FFFB07" stroke="black" stroke-width="5"/>
<path d="M400.963 51.7876C408.982 64.6806 404.755 81.9569 391.3 90.3251C377.845 98.6934 360.481 94.8457 352.462 81.9527C344.443 69.0597 348.67 51.7834 362.125 43.4152C375.58 35.0469 392.944 38.8946 400.963 51.7876Z" fill="#F74780" stroke="black" stroke-width="5"/>
<path d="M387.048 97.2702C395.067 110.163 390.841 127.439 377.386 135.808C363.931 144.176 346.566 140.328 338.547 127.435C330.529 114.542 334.755 97.2661 348.21 88.8978C361.665 80.5295 379.03 84.3773 387.048 97.2702Z" fill="#F74780" stroke="black" stroke-width="5"/>
<path d="M423.96 126.649C431.979 139.542 427.752 156.818 414.297 165.186C400.842 173.555 383.477 169.707 375.459 156.814C367.44 143.921 371.667 126.645 385.122 118.276C398.577 109.908 415.941 113.756 423.96 126.649Z" fill="#F74780" stroke="black" stroke-width="5"/>
<path d="M468.728 98.4905C475.879 111.873 470.439 128.675 456.35 135.951C442.26 143.227 425.1 138.097 417.948 124.714C410.797 111.332 416.238 94.5295 430.327 87.2535C444.416 79.9775 461.577 85.1082 468.728 98.4905Z" fill="#F74780" stroke="black" stroke-width="5"/>
<path d="M457.145 53.3453C465.267 66.1733 461.191 83.5015 447.819 92.0011C434.446 100.501 417.063 96.8115 408.941 83.9835C400.819 71.1556 404.894 53.8274 418.267 45.3278C431.64 36.8283 449.023 40.5174 457.145 53.3453Z" fill="#F74780" stroke="black" stroke-width="5"/>
<path d="M424.043 85.5043C432.062 98.3973 427.835 115.673 414.38 124.042C400.925 132.41 383.561 128.562 375.542 115.669C367.523 102.776 371.75 85.5001 385.205 77.1318C398.66 68.7635 416.024 72.6113 424.043 85.5043Z" fill="#FFFB07" stroke="black" stroke-width="5"/>
<path d="M560.963 85.7876C568.982 98.6806 564.755 115.957 551.3 124.325C537.845 132.693 520.481 128.846 512.462 115.953C504.443 103.06 508.67 85.7834 522.125 77.4152C535.58 69.0469 552.944 72.8946 560.963 85.7876Z" fill="#F74780" stroke="black" stroke-width="5"/>
<path d="M547.048 131.27C555.067 144.163 550.841 161.439 537.386 169.808C523.931 178.176 506.566 174.328 498.547 161.435C490.529 148.542 494.755 131.266 508.21 122.898C521.665 114.53 539.03 118.377 547.048 131.27Z" fill="#F74780" stroke="black" stroke-width="5"/>
<path d="M583.96 160.649C591.979 173.542 587.752 190.818 574.297 199.186C560.842 207.555 543.477 203.707 535.459 190.814C527.44 177.921 531.667 160.645 545.122 152.276C558.577 143.908 575.941 147.756 583.96 160.649Z" fill="#F74780" stroke="black" stroke-width="5"/>
<path d="M628.728 132.491C635.879 145.873 630.439 162.675 616.35 169.951C602.26 177.227 585.1 172.097 577.948 158.714C570.797 145.332 576.238 128.529 590.327 121.253C604.416 113.977 621.577 119.108 628.728 132.491Z" fill="#F74780" stroke="black" stroke-width="5"/>
<path d="M617.145 87.3453C625.267 100.173 621.191 117.502 607.819 126.001C594.446 134.501 577.063 130.811 568.941 117.984C560.819 105.156 564.894 87.8274 578.267 79.3278C591.64 70.8283 609.023 74.5174 617.145 87.3453Z" fill="#F74780" stroke="black" stroke-width="5"/>
<path d="M584.043 119.504C592.062 132.397 587.835 149.673 574.38 158.042C560.925 166.41 543.561 162.562 535.542 149.669C527.523 136.776 531.75 119.5 545.205 111.132C558.66 102.764 576.024 106.611 584.043 119.504Z" fill="#FFFB07" stroke="black" stroke-width="5"/>
<path d="M716.963 137.788C724.981 150.681 720.755 167.957 707.3 176.325C693.845 184.693 676.48 180.846 668.462 167.953C660.443 155.06 664.669 137.783 678.124 129.415C691.579 121.047 708.944 124.895 716.963 137.788Z" fill="#F74780" stroke="black" stroke-width="5"/>
<path d="M703.049 183.27C711.067 196.163 706.841 213.439 693.386 221.808C679.931 230.176 662.566 226.328 654.548 213.435C646.529 200.542 650.755 183.266 664.21 174.898C677.665 166.53 695.03 170.377 703.049 183.27Z" fill="#F74780" stroke="black" stroke-width="5"/>
<path d="M739.96 212.649C747.979 225.542 743.752 242.818 730.297 251.186C716.842 259.555 699.477 255.707 691.459 242.814C683.44 229.921 687.667 212.645 701.122 204.276C714.577 195.908 731.941 199.756 739.96 212.649Z" fill="#F74780" stroke="black" stroke-width="5"/>
<path d="M784.728 184.491C791.879 197.873 786.439 214.675 772.35 221.951C758.26 229.227 741.1 224.097 733.948 210.714C726.797 197.332 732.238 180.529 746.327 173.253C760.416 165.977 777.577 171.108 784.728 184.491Z" fill="#F74780" stroke="black" stroke-width="5"/>
<path d="M773.145 139.345C781.267 152.173 777.191 169.502 763.818 178.001C750.446 186.501 733.063 182.811 724.94 169.984C716.818 157.156 720.894 139.827 734.267 131.328C747.639 122.828 765.023 126.517 773.145 139.345Z" fill="#F74780" stroke="black" stroke-width="5"/>
<path d="M740.043 171.504C748.062 184.397 743.835 201.673 730.38 210.042C716.925 218.41 699.56 214.562 691.542 201.669C683.523 188.776 687.75 171.5 701.205 163.132C714.66 154.764 732.024 158.611 740.043 171.504Z" fill="#FFFB07" stroke="black" stroke-width="5"/>
</svg>
