<svg width="513" height="244" viewBox="0 0 513 244" fill="none" xmlns="http://www.w3.org/2000/svg">
<path d="M41.1141 189.043C79.5618 96.7907 419.531 93.4754 468.652 189.343C473.012 197.852 480.871 205 490.432 205C501.982 205 511.087 194.687 505.49 184.584C450.14 84.6777 71.9143 72.1822 7.62299 185.322C2.24856 194.78 10.311 205 21.1893 205C30.3501 205 37.59 197.499 41.1141 189.043Z" fill="#FF0000" stroke="#1E1E1E" stroke-width="10"/>
<path d="M293.108 100.675L382.623 47.5938C399.203 37.7623 420.189 49.5848 420.361 68.853L421.291 173.272C421.462 192.541 400.69 204.768 383.938 195.259L293.493 143.92C276.803 134.447 276.59 110.47 293.108 100.675Z" fill="#FF0000" stroke="black" stroke-width="10"/>
<path d="M223.708 100.675L134.192 47.5938C117.613 37.7623 96.6266 49.5848 96.455 68.853L95.5251 173.272C95.3535 192.541 116.125 204.768 132.877 195.259L223.323 143.92C240.012 134.447 240.226 110.47 223.708 100.675Z" fill="#FF0000" stroke="black" stroke-width="10"/>
<path d="M288 121.482C288 135.545 274.253 148.286 255.5 148.286C236.747 148.286 223 135.545 223 121.482C223 107.419 236.747 94.6777 255.5 94.6777C274.253 94.6777 288 107.419 288 121.482Z" fill="#FF0000" stroke="black" stroke-width="10"/>
</svg>
