<svg width="831" height="296" viewBox="0 0 831 296" fill="none" xmlns="http://www.w3.org/2000/svg">
<path d="M102.763 146.47C106.424 135.995 121.576 135.995 125.237 146.47C129.538 158.778 141.206 167.244 154.38 167.244H156.987C166.88 167.244 170.8 180.049 162.602 185.587C151.268 193.243 146.603 207.614 151.087 220.446C154.536 230.315 143.478 238.335 135.398 232.876L131.863 230.488C121.07 223.197 106.93 223.197 96.1368 230.488L92.6023 232.876C84.5217 238.335 73.4644 230.315 76.9131 220.446C81.397 207.614 76.7316 193.243 65.3979 185.587C57.2004 180.049 61.1203 167.244 71.0131 167.244H73.62C86.7939 167.244 98.4623 158.778 102.763 146.47Z" fill="#FFFB07" stroke="black" stroke-width="20"/>
<path d="M251.763 93.47C255.424 82.995 270.576 82.995 274.237 93.47C278.538 105.778 290.206 114.244 303.38 114.244H305.987C315.88 114.244 319.8 127.049 311.602 132.587C300.268 140.243 295.603 154.614 300.087 167.446C303.536 177.315 292.478 185.335 284.398 179.876L280.863 177.488C270.07 170.197 255.93 170.197 245.137 177.488L241.602 179.876C233.522 185.335 222.464 177.315 225.913 167.446C230.397 154.614 225.732 140.243 214.398 132.587C206.2 127.049 210.12 114.244 220.013 114.244H222.62C235.794 114.244 247.462 105.778 251.763 93.47Z" fill="#FFFB07" stroke="black" stroke-width="20"/>
<path d="M406.763 62.47C410.424 51.995 425.576 51.995 429.237 62.47C433.538 74.7781 445.206 83.2442 458.38 83.2442H460.987C470.88 83.2442 474.8 96.049 466.602 101.587C455.268 109.243 450.603 123.614 455.087 136.446C458.536 146.315 447.478 154.335 439.398 148.876L435.863 146.488C425.07 139.197 410.93 139.197 400.137 146.488L396.602 148.876C388.522 154.335 377.464 146.315 380.913 136.446C385.397 123.614 380.732 109.243 369.398 101.587C361.2 96.049 365.12 83.2442 375.013 83.2442H377.62C390.794 83.2442 402.462 74.7781 406.763 62.47Z" fill="#FFFB07" stroke="black" stroke-width="20"/>
<path d="M561.763 93.47C565.424 82.995 580.576 82.995 584.237 93.47C588.538 105.778 600.206 114.244 613.38 114.244H615.987C625.88 114.244 629.8 127.049 621.602 132.587C610.268 140.243 605.603 154.614 610.087 167.446C613.536 177.315 602.478 185.335 594.398 179.876L590.863 177.488C580.07 170.197 565.93 170.197 555.137 177.488L551.602 179.876C543.522 185.335 532.464 177.315 535.913 167.446C540.397 154.614 535.732 140.243 524.398 132.587C516.2 127.049 520.12 114.244 530.013 114.244H532.62C545.794 114.244 557.462 105.778 561.763 93.47Z" fill="#FFFB07" stroke="black" stroke-width="20"/>
<path d="M705.763 146.47C709.424 135.995 724.576 135.995 728.237 146.47C732.538 158.778 744.206 167.244 757.38 167.244H759.987C769.88 167.244 773.8 180.049 765.602 185.587C754.268 193.243 749.603 207.614 754.087 220.446C757.536 230.315 746.478 238.335 738.398 232.876L734.863 230.488C724.07 223.197 709.93 223.197 699.137 230.488L695.602 232.876C687.522 238.335 676.464 230.315 679.913 220.446C684.397 207.614 679.732 193.243 668.398 185.587C660.2 180.049 664.12 167.244 674.013 167.244H676.62C689.794 167.244 701.462 158.778 705.763 146.47Z" fill="#FFFB07" stroke="black" stroke-width="20"/>
</svg>
