<svg width="713" height="312" viewBox="0 0 713 312" fill="none" xmlns="http://www.w3.org/2000/svg">
<path d="M588.634 29C394.708 106.5 256.166 100.869 71.1344 29L16.134 213.5C-2.40054 289.08 22.5385 303.029 71.1342 301H357.134H571.634H657.134C705.007 296.081 713.348 277.603 691.134 213.5L612.134 15L588.634 29Z" fill="#FF90A8" stroke="black" stroke-width="20"/>
<ellipse cx="102" cy="105.5" rx="30" ry="31.5" fill="#D9D9D9"/>
<path d="M129.5 105.5C129.5 121.633 117.074 134.5 102 134.5C86.9257 134.5 74.5 121.633 74.5 105.5C74.5 89.3674 86.9257 76.5 102 76.5C117.074 76.5 129.5 89.3674 129.5 105.5Z" fill="white" stroke="black" stroke-width="5"/>
<path d="M99.5 244.5C99.5 260.633 87.0743 273.5 72 273.5C56.9257 273.5 44.5 260.633 44.5 244.5C44.5 228.367 56.9257 215.5 72 215.5C87.0743 215.5 99.5 228.367 99.5 244.5Z" fill="white" stroke="black" stroke-width="5"/>
<path d="M189.5 189.5C189.5 205.633 177.074 218.5 162 218.5C146.926 218.5 134.5 205.633 134.5 189.5C134.5 173.367 146.926 160.5 162 160.5C177.074 160.5 189.5 173.367 189.5 189.5Z" fill="white" stroke="black" stroke-width="5"/>
<path d="M264.5 244.5C264.5 260.633 252.074 273.5 237 273.5C221.926 273.5 209.5 260.633 209.5 244.5C209.5 228.367 221.926 215.5 237 215.5C252.074 215.5 264.5 228.367 264.5 244.5Z" fill="white" stroke="black" stroke-width="5"/>
<path d="M339.5 189.5C339.5 205.633 327.074 218.5 312 218.5C296.926 218.5 284.5 205.633 284.5 189.5C284.5 173.367 296.926 160.5 312 160.5C327.074 160.5 339.5 173.367 339.5 189.5Z" fill="white" stroke="black" stroke-width="5"/>
<path d="M264.5 130.5C264.5 146.633 252.074 159.5 237 159.5C221.926 159.5 209.5 146.633 209.5 130.5C209.5 114.367 221.926 101.5 237 101.5C252.074 101.5 264.5 114.367 264.5 130.5Z" fill="white" stroke="black" stroke-width="5"/>
<path d="M408.5 137.5C408.5 153.633 396.074 166.5 381 166.5C365.926 166.5 353.5 153.633 353.5 137.5C353.5 121.367 365.926 108.5 381 108.5C396.074 108.5 408.5 121.367 408.5 137.5Z" fill="white" stroke="black" stroke-width="5"/>
<path d="M413.5 244.5C413.5 260.633 401.074 273.5 386 273.5C370.926 273.5 358.5 260.633 358.5 244.5C358.5 228.367 370.926 215.5 386 215.5C401.074 215.5 413.5 228.367 413.5 244.5Z" fill="white" stroke="black" stroke-width="5"/>
<path d="M487.5 189.5C487.5 205.633 475.074 218.5 460 218.5C444.926 218.5 432.5 205.633 432.5 189.5C432.5 173.367 444.926 160.5 460 160.5C475.074 160.5 487.5 173.367 487.5 189.5Z" fill="white" stroke="black" stroke-width="5"/>
<path d="M538.5 126.5C538.5 142.633 526.074 155.5 511 155.5C495.926 155.5 483.5 142.633 483.5 126.5C483.5 110.367 495.926 97.5 511 97.5C526.074 97.5 538.5 110.367 538.5 126.5Z" fill="white" stroke="black" stroke-width="5"/>
<path d="M561.5 244.5C561.5 260.633 549.074 273.5 534 273.5C518.926 273.5 506.5 260.633 506.5 244.5C506.5 228.367 518.926 215.5 534 215.5C549.074 215.5 561.5 228.367 561.5 244.5Z" fill="white" stroke="black" stroke-width="5"/>
<path d="M627.5 189.5C627.5 205.633 615.074 218.5 600 218.5C584.926 218.5 572.5 205.633 572.5 189.5C572.5 173.367 584.926 160.5 600 160.5C615.074 160.5 627.5 173.367 627.5 189.5Z" fill="white" stroke="black" stroke-width="5"/>
<path d="M677.5 244.5C677.5 260.633 665.074 273.5 650 273.5C634.926 273.5 622.5 260.633 622.5 244.5C622.5 228.367 634.926 215.5 650 215.5C665.074 215.5 677.5 228.367 677.5 244.5Z" fill="white" stroke="black" stroke-width="5"/>
<path d="M621.5 99.5C621.5 115.633 609.074 128.5 594 128.5C578.926 128.5 566.5 115.633 566.5 99.5C566.5 83.3674 578.926 70.5 594 70.5C609.074 70.5 621.5 83.3674 621.5 99.5Z" fill="white" stroke="black" stroke-width="5"/>
</svg>
