<svg width="966" height="1157" viewBox="0 0 966 1157" fill="none" xmlns="http://www.w3.org/2000/svg">
<path d="M897 515.5C897 595.052 849.942 668.183 771.596 721.857C693.298 775.5 584.576 809 464 809C343.424 809 234.702 775.5 156.404 721.857C78.0579 668.183 31 595.052 31 515.5C31 435.948 78.0579 362.817 156.404 309.143C234.702 255.5 343.424 222 464 222C584.576 222 693.298 255.5 771.596 309.143C849.942 362.817 897 435.948 897 515.5Z" fill="#9BC643" stroke="black" stroke-width="20"/>
<path d="M723.5 762C529.573 839.5 391.032 833.869 206 762L151 946.5C132.465 1022.08 157.404 1036.03 206 1034H492H706.5H792C839.872 1029.08 848.213 1010.6 826 946.5L747 748L723.5 762Z" fill="#D67BF5" stroke="black" stroke-width="20"/>
<path d="M84 728L122 710L207 759L167.5 895L52 927.5L72.5 883.5L29.5 870.5L52 826L14 801L39 759L84 728Z" fill="#9BC643" stroke="black" stroke-width="20"/>
<path d="M876.03 709.411L836.74 694.433L755.826 749.921L805.825 882.421L923.51 905.803L899.637 863.538L941.49 847.22L915.584 804.613L951.516 776.722L923.313 736.802L876.03 709.411Z" fill="#9BC643" stroke="black" stroke-width="20"/>
<path d="M454 212C454 323.696 364.771 414 255 414C145.229 414 56 323.696 56 212C56 100.304 145.229 10 255 10C364.771 10 454 100.304 454 212Z" fill="white" stroke="black" stroke-width="20"/>
<path d="M872 212C872 323.696 782.771 414 673 414C563.229 414 474 323.696 474 212C474 100.304 563.229 10 673 10C782.771 10 872 100.304 872 212Z" fill="white" stroke="black" stroke-width="20"/>
<ellipse cx="336" cy="238.5" rx="64" ry="64.5" fill="black"/>
<ellipse cx="592" cy="238.5" rx="64" ry="64.5" fill="black"/>
<ellipse cx="774" cy="535.5" rx="64" ry="64.5" fill="#FF90A8"/>
<ellipse cx="774" cy="535.5" rx="64" ry="64.5" fill="#FF90A8"/>
<ellipse cx="774" cy="535.5" rx="64" ry="64.5" fill="#FF90A8"/>
<ellipse cx="774" cy="535.5" rx="64" ry="64.5" fill="#FF90A8"/>
<ellipse cx="144" cy="535.5" rx="64" ry="64.5" fill="#FF90A8"/>
<ellipse cx="144" cy="535.5" rx="64" ry="64.5" fill="#FF90A8"/>
<ellipse cx="144" cy="535.5" rx="64" ry="64.5" fill="#FF90A8"/>
<ellipse cx="144" cy="535.5" rx="64" ry="64.5" fill="#FF90A8"/>
<path d="M146 1063.5L171.5 1042L482 1049V1077.5L480 1099.5L475.5 1116.5L468 1134L455.5 1143.5L445 1146.5L430 1143.5L418.5 1134L408.5 1123.5L398.5 1113.5L390 1106.5L380.5 1099.5H371L361 1103.5L352 1111.5L336 1127.5L326.5 1136L315.5 1143.5L305 1146.5H295.5L285.5 1143.5L274.5 1134L262 1123.5L246 1103.5L237.5 1097H228L215 1106.5L194 1120.5L178.5 1127.5H158.5L144 1120.5L136 1106.5V1081.5L146 1063.5Z" fill="#9BC643" stroke="black" stroke-width="20"/>
<path d="M837 1063.5L811.5 1042L501 1049V1077.5L503 1099.5L507.5 1116.5L515 1134L527.5 1143.5L538 1146.5L553 1143.5L564.5 1134L574.5 1123.5L584.5 1113.5L593 1106.5L602.5 1099.5H612L622 1103.5L631 1111.5L647 1127.5L656.5 1136L667.5 1143.5L678 1146.5H687.5L697.5 1143.5L708.5 1134L721 1123.5L737 1103.5L745.5 1097H755L768 1106.5L789 1120.5L804.5 1127.5H824.5L839 1120.5L847 1106.5V1081.5L837 1063.5Z" fill="#9BC643" stroke="black" stroke-width="20"/>
<line x1="457.901" y1="809.925" x2="279.901" y2="672.925" stroke="black" stroke-width="20"/>
<line x1="470.405" y1="810.712" x2="667.405" y2="677.712" stroke="black" stroke-width="20"/>
</svg>
