<svg width="1098" height="499" viewBox="0 0 1098 499" fill="none" xmlns="http://www.w3.org/2000/svg">
<rect x="818" y="185" width="275" height="19" rx="5" fill="#FFFB07" stroke="black" stroke-width="10"/>
<rect x="818" y="185" width="275" height="19" rx="5" fill="#FFFB07" stroke="black" stroke-width="10"/>
<rect x="5" y="185" width="275" height="19" rx="5" fill="#FFFB07" stroke="black" stroke-width="10"/>
<path d="M771.423 166.705L652.754 246.185L659.134 251.076L773.55 172.818L771.423 166.705Z" fill="#FF1616" stroke="black"/>
<path d="M756.73 58.477L790.112 158.581C793.515 168.788 803.068 175.673 813.828 175.673L920.726 175.673C935.351 175.673 941.33 194.465 929.393 202.916L843.812 263.5C834.821 269.864 831.056 281.363 834.54 291.813L867.439 390.469C872.025 404.22 856.374 415.832 844.543 407.457L756.945 345.445C748.29 339.318 736.71 339.318 728.055 345.445L640.457 407.457C628.626 415.832 612.975 404.22 617.561 390.469L650.46 291.813C653.944 281.363 650.179 269.864 641.188 263.5L555.607 202.916C543.67 194.465 549.649 175.673 564.274 175.673L671.172 175.673C681.932 175.673 691.485 168.788 694.888 158.581L728.27 58.4771C732.83 44.8039 752.17 44.8039 756.73 58.477Z" fill="#FFFB07" stroke="black" stroke-width="10"/>
<path d="M756.788 109.224L777.218 173.146C780.529 183.505 790.157 190.535 801.032 190.535H867.837C882.308 190.535 888.389 209.003 876.749 217.601L822.138 257.937C813.52 264.302 809.916 275.452 813.178 285.657L833.903 350.502C838.334 364.366 822.41 375.781 810.703 367.134L757.353 327.729C748.525 321.208 736.476 321.208 727.647 327.729L674.297 367.134C662.59 375.781 646.666 364.365 651.097 350.502L671.822 285.657C675.084 275.452 671.48 264.302 662.862 257.937L608.251 217.601C596.611 209.003 602.692 190.535 617.163 190.535H683.968C694.843 190.535 704.471 183.505 707.782 173.146L728.212 109.224C732.658 95.3124 752.342 95.3124 756.788 109.224Z" fill="#68D9FF" stroke="black" stroke-width="10"/>
<line y1="-10" x2="131.83" y2="-10" transform="matrix(0.800145 -0.599807 0.632371 0.774666 679.55 270.64)" stroke="white" stroke-width="20"/>
<path d="M664 355.599L869 204" stroke="white" stroke-width="20" stroke-linecap="round"/>
<path d="M366.423 171.705L247.754 251.185L254.134 256.076L368.549 177.818L366.423 171.705Z" fill="#FF1616" stroke="black"/>
<path d="M351.73 63.477L385.112 163.581C388.515 173.788 398.068 180.673 408.828 180.673L515.726 180.673C530.351 180.673 536.33 199.465 524.393 207.916L438.812 268.5C429.821 274.864 426.056 286.363 429.54 296.813L462.439 395.469C467.025 409.22 451.374 420.832 439.543 412.457L351.945 350.445C343.29 344.318 331.71 344.318 323.055 350.445L235.457 412.457C223.626 420.832 207.975 409.22 212.561 395.469L245.46 296.813C248.944 286.363 245.179 274.864 236.188 268.5L150.607 207.916C138.67 199.465 144.649 180.673 159.274 180.673L266.172 180.673C276.932 180.673 286.485 173.788 289.888 163.581L323.27 63.4771C327.83 49.8039 347.17 49.8039 351.73 63.477Z" fill="#FFFB07" stroke="black" stroke-width="10"/>
<path d="M351.788 114.224L372.218 178.146C375.529 188.505 385.157 195.535 396.032 195.535H462.837C477.308 195.535 483.389 214.003 471.749 222.601L417.138 262.937C408.52 269.302 404.916 280.452 408.178 290.657L428.903 355.502C433.334 369.366 417.41 380.781 405.703 372.134L352.353 332.729C343.525 326.208 331.476 326.208 322.647 332.729L269.297 372.134C257.59 380.781 241.666 369.365 246.097 355.502L266.822 290.657C270.084 280.452 266.48 269.302 257.862 262.937L203.251 222.601C191.611 214.003 197.692 195.535 212.163 195.535H278.968C289.843 195.535 299.471 188.505 302.782 178.146L323.212 114.224C327.658 100.312 347.342 100.312 351.788 114.224Z" fill="#68D9FF" stroke="black" stroke-width="10"/>
<line y1="-10" x2="131.83" y2="-10" transform="matrix(0.800145 -0.599807 0.632371 0.774666 274.55 275.64)" stroke="white" stroke-width="20"/>
<path d="M259 360.599L464 209" stroke="white" stroke-width="20" stroke-linecap="round"/>
</svg>
