<svg width="912" height="499" viewBox="0 0 912 499" fill="none" xmlns="http://www.w3.org/2000/svg">
<path d="M687.423 166.705L568.754 246.185L575.134 251.076L689.55 172.818L687.423 166.705Z" fill="#FF1616" stroke="black"/>
<path d="M672.73 58.477L706.112 158.581C709.515 168.788 719.068 175.673 729.828 175.673L836.726 175.673C851.351 175.673 857.33 194.465 845.393 202.916L759.812 263.5C750.821 269.864 747.056 281.363 750.54 291.813L783.439 390.469C788.025 404.22 772.374 415.832 760.543 407.457L672.945 345.445C664.29 339.318 652.71 339.318 644.055 345.445L556.457 407.457C544.626 415.832 528.975 404.22 533.561 390.469L566.46 291.813C569.944 281.363 566.179 269.864 557.188 263.5L471.607 202.916C459.67 194.465 465.649 175.673 480.274 175.673L587.172 175.673C597.932 175.673 607.485 168.788 610.888 158.581L644.27 58.4771C648.83 44.8039 668.17 44.8039 672.73 58.477Z" fill="#FFFB07" stroke="black" stroke-width="10"/>
<path d="M672.788 109.224L693.218 173.146C696.529 183.505 706.157 190.535 717.032 190.535H783.837C798.308 190.535 804.389 209.003 792.749 217.601L738.138 257.937C729.52 264.302 725.916 275.452 729.178 285.657L749.903 350.502C754.334 364.366 738.41 375.781 726.703 367.134L673.353 327.729C664.525 321.208 652.476 321.208 643.647 327.729L590.297 367.134C578.59 375.781 562.666 364.365 567.097 350.502L587.822 285.657C591.084 275.452 587.48 264.302 578.862 257.937L524.251 217.601C512.611 209.003 518.692 190.535 533.163 190.535H599.968C610.843 190.535 620.471 183.505 623.782 173.146L644.212 109.224C648.658 95.3124 668.342 95.3124 672.788 109.224Z" fill="#68D9FF" stroke="black" stroke-width="10"/>
<line y1="-10" x2="131.83" y2="-10" transform="matrix(0.800145 -0.599807 0.632371 0.774666 595.55 270.64)" stroke="white" stroke-width="20"/>
<path d="M580 355.599L785 204" stroke="white" stroke-width="20" stroke-linecap="round"/>
<path d="M282.423 171.705L163.754 251.185L170.134 256.076L284.549 177.818L282.423 171.705Z" fill="#FF1616" stroke="black"/>
<path d="M267.73 63.477L301.112 163.581C304.515 173.788 314.068 180.673 324.828 180.673L431.726 180.673C446.351 180.673 452.33 199.465 440.393 207.916L354.812 268.5C345.821 274.864 342.056 286.363 345.54 296.813L378.439 395.469C383.025 409.22 367.374 420.832 355.543 412.457L267.945 350.445C259.29 344.318 247.71 344.318 239.055 350.445L151.457 412.457C139.626 420.832 123.975 409.22 128.561 395.469L161.46 296.813C164.944 286.363 161.179 274.864 152.188 268.5L66.6071 207.916C54.6704 199.465 60.6489 180.673 75.2739 180.673L182.172 180.673C192.932 180.673 202.485 173.788 205.888 163.581L239.27 63.4771C243.83 49.8039 263.17 49.8039 267.73 63.477Z" fill="#FFFB07" stroke="black" stroke-width="10"/>
<path d="M267.788 114.224L288.218 178.146C291.529 188.505 301.157 195.535 312.032 195.535H378.837C393.308 195.535 399.389 214.003 387.749 222.601L333.138 262.937C324.52 269.302 320.916 280.452 324.178 290.657L344.903 355.502C349.334 369.366 333.41 380.781 321.703 372.134L268.353 332.729C259.525 326.208 247.476 326.208 238.647 332.729L185.297 372.134C173.59 380.781 157.666 369.365 162.097 355.502L182.822 290.657C186.084 280.452 182.48 269.302 173.862 262.937L119.251 222.601C107.611 214.003 113.692 195.535 128.163 195.535H194.968C205.843 195.535 215.471 188.505 218.782 178.146L239.212 114.224C243.658 100.312 263.342 100.312 267.788 114.224Z" fill="#68D9FF" stroke="black" stroke-width="10"/>
<line y1="-10" x2="131.83" y2="-10" transform="matrix(0.800145 -0.599807 0.632371 0.774666 190.55 275.64)" stroke="white" stroke-width="20"/>
<path d="M175 360.599L380 209" stroke="white" stroke-width="20" stroke-linecap="round"/>
</svg>
