<svg width="1536" height="957" viewBox="0 0 1536 957" fill="none" xmlns="http://www.w3.org/2000/svg">
<g clip-path="url(#clip0_2090_102)">
<rect width="1536" height="957" rx="20" fill="url(#paint0_linear_2090_102)"/>
<path d="M161.163 32.8826L166.09 45.6039C168.326 51.3796 173.883 55.1864 180.077 55.1864H191.733C196.786 55.1864 198.65 61.8261 194.336 64.4559L188.102 68.2553C181.902 72.0341 179.299 79.7106 181.921 86.4811L184.977 94.3715C186.703 98.8277 181.793 102.934 177.713 100.447L164.307 92.2757C159.512 89.3535 153.488 89.3535 148.693 92.2757L135.287 100.447C131.207 102.934 126.297 98.8277 128.023 94.3715L131.079 86.4811C133.701 79.7106 131.098 72.0341 124.898 68.2553L118.664 64.4559C114.35 61.8261 116.214 55.1864 121.267 55.1864H132.923C139.117 55.1864 144.674 51.3796 146.91 45.6039L151.837 32.8826C153.487 28.6236 159.513 28.6236 161.163 32.8826Z" fill="white" stroke="black" stroke-width="10"/>
<path d="M67.1625 140.883L72.0895 153.604C74.3265 159.38 79.8833 163.186 86.0771 163.186H97.7334C102.786 163.186 104.65 169.826 100.336 172.456L94.1021 176.255C87.9025 180.034 85.2992 187.711 87.9214 194.481L90.9774 202.371C92.7034 206.828 87.7932 210.934 83.7126 208.447L70.3069 200.276C65.5125 197.353 59.4875 197.353 54.6931 200.276L41.2874 208.447C37.2068 210.934 32.2966 206.828 34.0226 202.371L37.0786 194.481C39.7008 187.711 37.0975 180.034 30.8979 176.255L24.6644 172.456C20.3498 169.826 22.2138 163.186 27.2666 163.186H38.9229C45.1167 163.186 50.6735 159.38 52.9105 153.604L57.8375 140.883C59.487 136.624 65.513 136.624 67.1625 140.883Z" fill="white" stroke="black" stroke-width="10"/>
<path d="M167.163 245.883L172.09 258.604C174.326 264.38 179.883 268.186 186.077 268.186H197.733C202.786 268.186 204.65 274.826 200.336 277.456L194.102 281.255C187.902 285.034 185.299 292.711 187.921 299.481L190.977 307.371C192.703 311.828 187.793 315.934 183.713 313.447L170.307 305.276C165.512 302.353 159.488 302.353 154.693 305.276L141.287 313.447C137.207 315.934 132.297 311.828 134.023 307.371L137.079 299.481C139.701 292.711 137.098 285.034 130.898 281.255L124.664 277.456C120.35 274.826 122.214 268.186 127.267 268.186H138.923C145.117 268.186 150.674 264.38 152.91 258.604L157.837 245.883C159.487 241.624 165.513 241.624 167.163 245.883Z" fill="white" stroke="black" stroke-width="10"/>
<path d="M1361.16 18.8826L1366.09 31.6039C1368.33 37.3796 1373.88 41.1864 1380.08 41.1864H1391.73C1396.79 41.1864 1398.65 47.8261 1394.34 50.4559L1388.1 54.2553C1381.9 58.0341 1379.3 65.7106 1381.92 72.4811L1384.98 80.3715C1386.7 84.8277 1381.79 88.9339 1377.71 86.4467L1364.31 78.2757C1359.51 75.3535 1353.49 75.3535 1348.69 78.2757L1335.29 86.4467C1331.21 88.9339 1326.3 84.8277 1328.02 80.3715L1331.08 72.4811C1333.7 65.7106 1331.1 58.0341 1324.9 54.2553L1318.66 50.4559C1314.35 47.8261 1316.21 41.1864 1321.27 41.1864H1332.92C1339.12 41.1864 1344.67 37.3796 1346.91 31.6039L1351.84 18.8826C1353.49 14.6236 1359.51 14.6236 1361.16 18.8826Z" fill="white" stroke="black" stroke-width="10"/>
<path d="M1481.16 113.883L1486.09 126.604C1488.33 132.38 1493.88 136.186 1500.08 136.186H1511.73C1516.79 136.186 1518.65 142.826 1514.34 145.456L1508.1 149.255C1501.9 153.034 1499.3 160.711 1501.92 167.481L1504.98 175.371C1506.7 179.828 1501.79 183.934 1497.71 181.447L1484.31 173.276C1479.51 170.353 1473.49 170.353 1468.69 173.276L1455.29 181.447C1451.21 183.934 1446.3 179.828 1448.02 175.371L1451.08 167.481C1453.7 160.711 1451.1 153.034 1444.9 149.255L1438.66 145.456C1434.35 142.826 1436.21 136.186 1441.27 136.186H1452.92C1459.12 136.186 1464.67 132.38 1466.91 126.604L1471.84 113.883C1473.49 109.624 1479.51 109.624 1481.16 113.883Z" fill="white" stroke="black" stroke-width="10"/>
<path d="M1373.16 229.883L1378.09 242.604C1380.33 248.38 1385.88 252.186 1392.08 252.186H1403.73C1408.79 252.186 1410.65 258.826 1406.34 261.456L1400.1 265.255C1393.9 269.034 1391.3 276.711 1393.92 283.481L1396.98 291.371C1398.7 295.828 1393.79 299.934 1389.71 297.447L1376.31 289.276C1371.51 286.353 1365.49 286.353 1360.69 289.276L1347.29 297.447C1343.21 299.934 1338.3 295.828 1340.02 291.371L1343.08 283.481C1345.7 276.711 1343.1 269.034 1336.9 265.255L1330.66 261.456C1326.35 258.826 1328.21 252.186 1333.27 252.186H1344.92C1351.12 252.186 1356.67 248.38 1358.91 242.604L1363.84 229.883C1365.49 225.624 1371.51 225.624 1373.16 229.883Z" fill="white" stroke="black" stroke-width="10"/>
<rect x="-137.5" y="654.5" width="1705" height="604" fill="#8C553D" stroke="black" stroke-width="5"/>
<path d="M-12 302C373.782 359.426 805.516 328.746 980 -7M165 -7C195 251 1359.52 637.746 1534 302" stroke="black" stroke-width="10"/>
<path d="M226 82.5C226 88.1009 220.324 94 211.5 94C202.676 94 197 88.1009 197 82.5C197 76.8991 202.676 71 211.5 71C220.324 71 226 76.8991 226 82.5Z" fill="#FFCC00" stroke="black" stroke-width="10"/>
<path d="M292 138.5C292 144.101 286.324 150 277.5 150C268.676 150 263 144.101 263 138.5C263 132.899 268.676 127 277.5 127C286.324 127 292 132.899 292 138.5Z" fill="#FFCC00" stroke="black" stroke-width="10"/>
<path d="M385 196.5C385 202.101 379.324 208 370.5 208C361.676 208 356 202.101 356 196.5C356 190.899 361.676 185 370.5 185C379.324 185 385 190.899 385 196.5Z" fill="#FFCC00" stroke="black" stroke-width="10"/>
<path d="M485 249.5C485 255.101 479.324 261 470.5 261C461.676 261 456 255.101 456 249.5C456 243.899 461.676 238 470.5 238C479.324 238 485 243.899 485 249.5Z" fill="#FFCC00" stroke="black" stroke-width="10"/>
<path d="M580 296.5C580 302.101 574.324 308 565.5 308C556.676 308 551 302.101 551 296.5C551 290.899 556.676 285 565.5 285C574.324 285 580 290.899 580 296.5Z" fill="#FFCC00" stroke="black" stroke-width="10"/>
<path d="M681 329.5C681 335.101 675.324 341 666.5 341C657.676 341 652 335.101 652 329.5C652 323.899 657.676 318 666.5 318C675.324 318 681 323.899 681 329.5Z" fill="#FFCC00" stroke="black" stroke-width="10"/>
<path d="M782 362.5C782 368.101 776.324 374 767.5 374C758.676 374 753 368.101 753 362.5C753 356.899 758.676 351 767.5 351C776.324 351 782 356.899 782 362.5Z" fill="#FFCC00" stroke="black" stroke-width="10"/>
<path d="M908 395.5C908 401.101 902.324 407 893.5 407C884.676 407 879 401.101 879 395.5C879 389.899 884.676 384 893.5 384C902.324 384 908 389.899 908 395.5Z" fill="#FFCC00" stroke="black" stroke-width="10"/>
<path d="M1022 421.5C1022 427.101 1016.32 433 1007.5 433C998.676 433 993 427.101 993 421.5C993 415.899 998.676 410 1007.5 410C1016.32 410 1022 415.899 1022 421.5Z" fill="#FFCC00" stroke="black" stroke-width="10"/>
<path d="M1148 433.5C1148 439.101 1142.32 445 1133.5 445C1124.68 445 1119 439.101 1119 433.5C1119 427.899 1124.68 422 1133.5 422C1142.32 422 1148 427.899 1148 433.5Z" fill="#FFCC00" stroke="black" stroke-width="10"/>
<path d="M1283 433.5C1283 439.101 1277.32 445 1268.5 445C1259.68 445 1254 439.101 1254 433.5C1254 427.899 1259.68 422 1268.5 422C1277.32 422 1283 427.899 1283 433.5Z" fill="#FFCC00" stroke="black" stroke-width="10"/>
<path d="M1397 412.5C1397 418.101 1391.32 424 1382.5 424C1373.68 424 1368 418.101 1368 412.5C1368 406.899 1373.68 401 1382.5 401C1391.32 401 1397 406.899 1397 412.5Z" fill="#FFCC00" stroke="black" stroke-width="10"/>
<path d="M1496 362.5C1496 368.101 1490.32 374 1481.5 374C1472.68 374 1467 368.101 1467 362.5C1467 356.899 1472.68 351 1481.5 351C1490.32 351 1496 356.899 1496 362.5Z" fill="#FFCC00" stroke="black" stroke-width="10"/>
<path d="M964 49.5C964 55.1009 958.324 61 949.5 61C940.676 61 935 55.1009 935 49.5C935 43.8991 940.676 38 949.5 38C958.324 38 964 43.8991 964 49.5Z" fill="#FFCC00" stroke="black" stroke-width="10"/>
<path d="M908 115.5C908 121.101 902.324 127 893.5 127C884.676 127 879 121.101 879 115.5C879 109.899 884.676 104 893.5 104C902.324 104 908 109.899 908 115.5Z" fill="#FFCC00" stroke="black" stroke-width="10"/>
<path d="M836 171.5C836 177.101 830.324 183 821.5 183C812.676 183 807 177.101 807 171.5C807 165.899 812.676 160 821.5 160C830.324 160 836 165.899 836 171.5Z" fill="#FFCC00" stroke="black" stroke-width="10"/>
<path d="M762 229.5C762 235.101 756.324 241 747.5 241C738.676 241 733 235.101 733 229.5C733 223.899 738.676 218 747.5 218C756.324 218 762 223.899 762 229.5Z" fill="#FFCC00" stroke="black" stroke-width="10"/>
<path d="M661 266.5C661 272.101 655.324 278 646.5 278C637.676 278 632 272.101 632 266.5C632 260.899 637.676 255 646.5 255C655.324 255 661 260.899 661 266.5Z" fill="#FFCC00" stroke="black" stroke-width="10"/>
<path d="M485 312.5C485 318.101 479.324 324 470.5 324C461.676 324 456 318.101 456 312.5C456 306.899 461.676 301 470.5 301C479.324 301 485 306.899 485 312.5Z" fill="#FFCC00" stroke="black" stroke-width="10"/>
<path d="M366 328.5C366 334.101 360.324 340 351.5 340C342.676 340 337 334.101 337 328.5C337 322.899 342.676 317 351.5 317C360.324 317 366 322.899 366 328.5Z" fill="#FFCC00" stroke="black" stroke-width="10"/>
<path d="M245 328.5C245 334.101 239.324 340 230.5 340C221.676 340 216 334.101 216 328.5C216 322.899 221.676 317 230.5 317C239.324 317 245 322.899 245 328.5Z" fill="#FFCC00" stroke="black" stroke-width="10"/>
<path d="M116 313.5C116 319.101 110.324 325 101.5 325C92.6763 325 87 319.101 87 313.5C87 307.899 92.6763 302 101.5 302C110.324 302 116 307.899 116 313.5Z" fill="#FFCC00" stroke="black" stroke-width="10"/>
<rect x="174" y="547" width="387" height="51" rx="15" fill="#FF0000" stroke="black" stroke-width="10"/>
<rect x="205" y="552" width="37" height="41" fill="white"/>
<rect x="279" y="552" width="37" height="41" fill="white"/>
<rect x="353" y="552" width="37" height="41" fill="white"/>
<rect x="427" y="552" width="37" height="41" fill="white"/>
<rect x="501" y="552" width="37" height="41" fill="white"/>
<path d="M351 598H384V795C384 803.284 377.284 810 369 810H366C357.716 810 351 803.284 351 795V598Z" fill="#3B1010" stroke="black" stroke-width="10"/>
<rect x="918" y="547" width="387" height="51" rx="15" fill="#FF0000" stroke="black" stroke-width="10"/>
<rect x="949" y="552" width="37" height="41" fill="white"/>
<rect x="1023" y="552" width="37" height="41" fill="white"/>
<rect x="1097" y="552" width="37" height="41" fill="white"/>
<rect x="1171" y="552" width="37" height="41" fill="white"/>
<rect x="1245" y="552" width="37" height="41" fill="white"/>
<path d="M1095 598H1128V795C1128 803.284 1121.28 810 1113 810H1110C1101.72 810 1095 803.284 1095 795V598Z" fill="#3B1010" stroke="black" stroke-width="10"/>
<ellipse opacity="0.19" cx="371" cy="196.5" rx="52" ry="46.5" fill="#FFDE59"/>
<ellipse opacity="0.19" cx="471" cy="249.5" rx="52" ry="46.5" fill="#FFDE59"/>
<ellipse opacity="0.19" cx="566" cy="296.5" rx="52" ry="46.5" fill="#FFDE59"/>
<ellipse opacity="0.19" cx="647" cy="266.5" rx="52" ry="46.5" fill="#FFDE59"/>
<ellipse opacity="0.19" cx="666" cy="328.5" rx="52" ry="46.5" fill="#FFDE59"/>
<ellipse opacity="0.19" cx="767" cy="362.5" rx="52" ry="46.5" fill="#FFDE59"/>
<ellipse opacity="0.19" cx="894" cy="395.5" rx="52" ry="46.5" fill="#FFDE59"/>
<ellipse opacity="0.19" cx="1008" cy="421.5" rx="52" ry="46.5" fill="#FFDE59"/>
<ellipse opacity="0.19" cx="1133" cy="433.5" rx="52" ry="46.5" fill="#FFDE59"/>
<ellipse opacity="0.19" cx="1269" cy="433.5" rx="52" ry="46.5" fill="#FFDE59"/>
<ellipse opacity="0.19" cx="1383" cy="412.5" rx="52" ry="46.5" fill="#FFDE59"/>
<ellipse opacity="0.19" cx="1482" cy="362.5" rx="52" ry="46.5" fill="#FFDE59"/>
<ellipse opacity="0.19" cx="748" cy="229.5" rx="52" ry="46.5" fill="#FFDE59"/>
<ellipse opacity="0.19" cx="822" cy="171.5" rx="52" ry="46.5" fill="#FFDE59"/>
<ellipse opacity="0.19" cx="894" cy="115.5" rx="52" ry="46.5" fill="#FFDE59"/>
<ellipse opacity="0.19" cx="950" cy="45.5" rx="52" ry="46.5" fill="#FFDE59"/>
<ellipse opacity="0.19" cx="351" cy="328.5" rx="52" ry="46.5" fill="#FFDE59"/>
<ellipse opacity="0.19" cx="231" cy="328.5" rx="52" ry="46.5" fill="#FFDE59"/>
<ellipse opacity="0.19" cx="102" cy="312.5" rx="52" ry="46.5" fill="#FFDE59"/>
<ellipse opacity="0.19" cx="471" cy="312.5" rx="52" ry="46.5" fill="#FFDE59"/>
<ellipse opacity="0.19" cx="212" cy="82.5" rx="52" ry="46.5" fill="#FFDE59"/>
<ellipse opacity="0.19" cx="278" cy="138.5" rx="52" ry="46.5" fill="#FFDE59"/>
<path d="M53 438H62C70.2843 438 77 444.716 77 453V668H38V453C38 444.716 44.7157 438 53 438Z" fill="#871A1A" stroke="black" stroke-width="10"/>
<path d="M174.273 643.466L174.315 652.466C174.354 660.75 167.67 667.497 159.385 667.536L39.2043 668.097L39.0221 629.098L159.203 628.536C167.487 628.498 174.234 635.182 174.273 643.466Z" fill="#3A0000" stroke="black" stroke-width="10"/>
<rect x="38" y="673" width="16" height="127" fill="#5E3625" stroke="black" stroke-width="10"/>
<rect x="148" y="673" width="16" height="127" fill="#5E3625" stroke="black" stroke-width="10"/>
<path d="M692.41 438H683.41C675.126 438 668.41 444.716 668.41 453V668H707.41V453C707.41 444.716 700.694 438 692.41 438Z" fill="#871A1A" stroke="black" stroke-width="10"/>
<path d="M571.137 643.466L571.095 652.466C571.056 660.75 577.741 667.497 586.025 667.536L706.206 668.097L706.388 629.098L586.207 628.536C577.923 628.498 571.176 635.182 571.137 643.466Z" fill="#3A0000" stroke="black" stroke-width="10"/>
<rect x="-5" y="5" width="16" height="127" transform="matrix(-1 0 0 1 702.41 668)" fill="#5E3625" stroke="black" stroke-width="10"/>
<rect x="-5" y="5" width="16" height="127" transform="matrix(-1 0 0 1 592.41 668)" fill="#5E3625" stroke="black" stroke-width="10"/>
<path d="M845 438H854C862.284 438 869 444.716 869 453V668H830V453C830 444.716 836.716 438 845 438Z" fill="#871A1A" stroke="black" stroke-width="10"/>
<path d="M966.273 643.466L966.315 652.466C966.354 660.75 959.67 667.497 951.385 667.536L831.204 668.097L831.022 629.098L951.203 628.536C959.487 628.498 966.234 635.182 966.273 643.466Z" fill="#3A0000" stroke="black" stroke-width="10"/>
<rect x="830" y="673" width="16" height="127" fill="#5E3625" stroke="black" stroke-width="10"/>
<rect x="940" y="673" width="16" height="127" fill="#5E3625" stroke="black" stroke-width="10"/>
<path d="M1398.41 438H1389.41C1381.13 438 1374.41 444.716 1374.41 453V668H1413.41V453C1413.41 444.716 1406.69 438 1398.41 438Z" fill="#871A1A" stroke="black" stroke-width="10"/>
<path d="M1277.14 643.466L1277.09 652.466C1277.06 660.75 1283.74 667.497 1292.02 667.536L1412.21 668.097L1412.39 629.098L1292.21 628.536C1283.92 628.498 1277.18 635.182 1277.14 643.466Z" fill="#3A0000" stroke="black" stroke-width="10"/>
<rect x="-5" y="5" width="16" height="127" transform="matrix(-1 0 0 1 1408.41 668)" fill="#5E3625" stroke="black" stroke-width="10"/>
<rect x="-5" y="5" width="16" height="127" transform="matrix(-1 0 0 1 1298.41 668)" fill="#5E3625" stroke="black" stroke-width="10"/>
<path d="M388 489V537H356V489C356 480.163 363.163 473 372 473C380.837 473 388 480.163 388 489Z" fill="#FFFFB4" stroke="black" stroke-width="10"/>
<path d="M381.36 454.299C381.36 458.796 376.929 463.098 370.587 463.098C364.245 463.098 359.814 458.796 359.814 454.299C359.814 449.802 364.245 445.5 370.587 445.5C376.929 445.5 381.36 449.802 381.36 454.299Z" fill="#F74780" stroke="black" stroke-width="5"/>
<path d="M366.045 466.03C366.045 470.528 361.615 474.829 355.273 474.829C348.931 474.829 344.5 470.528 344.5 466.03C344.5 461.533 348.931 457.231 355.273 457.231C361.615 457.231 366.045 461.533 366.045 466.03Z" fill="#F74780" stroke="black" stroke-width="5"/>
<path d="M372.809 482.701C372.809 487.198 368.379 491.5 362.036 491.5C355.694 491.5 351.264 487.198 351.264 482.701C351.264 478.204 355.694 473.902 362.036 473.902C368.379 473.902 372.809 478.204 372.809 482.701Z" fill="#F74780" stroke="black" stroke-width="5"/>
<path d="M395.414 482.5C395.078 486.987 390.337 490.967 384.012 490.524C377.688 490.08 373.589 485.481 373.925 480.994C374.261 476.507 379.002 472.527 385.327 472.971C391.651 473.414 395.75 478.014 395.414 482.5Z" fill="#F74780" stroke="black" stroke-width="5"/>
<path d="M401.396 465.938C401.437 470.435 397.046 474.775 390.705 474.829C384.363 474.883 379.893 470.62 379.852 466.123C379.81 461.626 384.201 457.286 390.543 457.232C396.885 457.177 401.355 461.441 401.396 465.938Z" fill="#F74780" stroke="black" stroke-width="5"/>
<path d="M382.126 469.611C382.126 474.109 377.695 478.41 371.353 478.41C365.011 478.41 360.58 474.109 360.58 469.611C360.58 465.114 365.011 460.812 371.353 460.812C377.695 460.812 382.126 465.114 382.126 469.611Z" fill="#FFFB07" stroke="black" stroke-width="5"/>
<path d="M1131 499V547H1099V499C1099 490.163 1106.16 483 1115 483C1123.84 483 1131 490.163 1131 499Z" fill="#FFFFB4" stroke="black" stroke-width="10"/>
<path d="M1124.36 464.299C1124.36 468.796 1119.93 473.098 1113.59 473.098C1107.25 473.098 1102.81 468.796 1102.81 464.299C1102.81 459.802 1107.25 455.5 1113.59 455.5C1119.93 455.5 1124.36 459.802 1124.36 464.299Z" fill="#F74780" stroke="black" stroke-width="5"/>
<path d="M1109.05 476.03C1109.05 480.528 1104.61 484.829 1098.27 484.829C1091.93 484.829 1087.5 480.528 1087.5 476.03C1087.5 471.533 1091.93 467.231 1098.27 467.231C1104.61 467.231 1109.05 471.533 1109.05 476.03Z" fill="#F74780" stroke="black" stroke-width="5"/>
<path d="M1115.81 492.701C1115.81 497.198 1111.38 501.5 1105.04 501.5C1098.69 501.5 1094.26 497.198 1094.26 492.701C1094.26 488.204 1098.69 483.902 1105.04 483.902C1111.38 483.902 1115.81 488.204 1115.81 492.701Z" fill="#F74780" stroke="black" stroke-width="5"/>
<path d="M1138.41 492.5C1138.08 496.987 1133.34 500.967 1127.01 500.524C1120.69 500.08 1116.59 495.481 1116.93 490.994C1117.26 486.507 1122 482.527 1128.33 482.971C1134.65 483.414 1138.75 488.014 1138.41 492.5Z" fill="#F74780" stroke="black" stroke-width="5"/>
<path d="M1144.4 475.938C1144.44 480.435 1140.05 484.775 1133.7 484.829C1127.36 484.883 1122.89 480.62 1122.85 476.123C1122.81 471.626 1127.2 467.286 1133.54 467.232C1139.89 467.177 1144.35 471.441 1144.4 475.938Z" fill="#F74780" stroke="black" stroke-width="5"/>
<path d="M1125.13 479.611C1125.13 484.109 1120.7 488.41 1114.35 488.41C1108.01 488.41 1103.58 484.109 1103.58 479.611C1103.58 475.114 1108.01 470.812 1114.35 470.812C1120.7 470.812 1125.13 475.114 1125.13 479.611Z" fill="#FFFB07" stroke="black" stroke-width="5"/>
</g>
<rect x="10" y="10" width="1516" height="937" rx="10" stroke="black" stroke-width="20"/>
<defs>
<linearGradient id="paint0_linear_2090_102" x1="768" y1="0" x2="768" y2="957" gradientUnits="userSpaceOnUse">
<stop stop-color="#270C41"/>
<stop offset="1" stop-color="#092223"/>
</linearGradient>
<clipPath id="clip0_2090_102">
<rect width="1536" height="957" rx="20" fill="white"/>
</clipPath>
</defs>
</svg>
