<svg width="1536" height="957" viewBox="0 0 1536 957" fill="none" xmlns="http://www.w3.org/2000/svg">
<g clip-path="url(#clip0_2083_302)">
<rect width="1536" height="957" rx="20" fill="url(#paint0_linear_2083_302)"/>
<path d="M1189 642C1189 857.037 1000.66 1032 767.5 1032C534.344 1032 346 857.037 346 642C346 426.963 534.344 252 767.5 252C1000.66 252 1189 426.963 1189 642Z" fill="#FF9B43" stroke="black" stroke-width="10"/>
<rect x="-40.5" y="575.5" width="1705" height="604" fill="url(#paint1_linear_2083_302)" stroke="black" stroke-width="5"/>
<path d="M445 642H1107" stroke="#FFB370" stroke-opacity="0.5" stroke-width="100" stroke-linecap="round"/>
<path d="M617 878H918" stroke="#F8EEAE" stroke-opacity="0.3" stroke-width="100" stroke-linecap="round"/>
<path d="M542 761H994" stroke="#F9C89D" stroke-opacity="0.4" stroke-width="100" stroke-linecap="round"/>
<path d="M246.163 36.8826L251.09 49.6039C253.326 55.3796 258.883 59.1864 265.077 59.1864H276.733C281.786 59.1864 283.65 65.8261 279.336 68.4559L273.102 72.2553C266.902 76.0341 264.299 83.7106 266.921 90.4811L269.977 98.3715C271.703 102.828 266.793 106.934 262.713 104.447L249.307 96.2757C244.512 93.3535 238.488 93.3535 233.693 96.2757L220.287 104.447C216.207 106.934 211.297 102.828 213.023 98.3715L216.079 90.4811C218.701 83.7106 216.098 76.0341 209.898 72.2553L203.664 68.4559C199.35 65.8261 201.214 59.1864 206.267 59.1864H217.923C224.117 59.1864 229.674 55.3796 231.91 49.6039L236.837 36.8826C238.487 32.6236 244.513 32.6236 246.163 36.8826Z" fill="#FFFB07" stroke="black" stroke-width="10"/>
<path d="M20.1625 36.8826L25.0895 49.6039C27.3265 55.3796 32.8833 59.1864 39.0771 59.1864H50.7334C55.7862 59.1864 57.6502 65.8261 53.3356 68.4559L47.1021 72.2553C40.9025 76.0341 38.2992 83.7106 40.9214 90.4811L43.9774 98.3715C45.7034 102.828 40.7932 106.934 36.7126 104.447L23.3069 96.2757C18.5125 93.3535 12.4875 93.3535 7.69314 96.2757L-5.71262 104.447C-9.79318 106.934 -14.7034 102.828 -12.9774 98.3715L-9.92144 90.4811C-7.29922 83.7106 -9.90247 76.0341 -16.1021 72.2553L-22.3356 68.4559C-26.6502 65.8261 -24.7862 59.1864 -19.7334 59.1864H-8.07708C-1.88332 59.1864 3.67352 55.3796 5.91046 49.6039L10.8375 36.8826C12.487 32.6236 18.513 32.6236 20.1625 36.8826Z" fill="#FFFB07" stroke="black" stroke-width="10"/>
<path d="M1376.16 36.8826L1381.09 49.6039C1383.33 55.3796 1388.88 59.1864 1395.08 59.1864H1406.73C1411.79 59.1864 1413.65 65.8261 1409.34 68.4559L1403.1 72.2553C1396.9 76.0341 1394.3 83.7106 1396.92 90.4811L1399.98 98.3715C1401.7 102.828 1396.79 106.934 1392.71 104.447L1379.31 96.2757C1374.51 93.3535 1368.49 93.3535 1363.69 96.2757L1350.29 104.447C1346.21 106.934 1341.3 102.828 1343.02 98.3715L1346.08 90.4811C1348.7 83.7106 1346.1 76.0341 1339.9 72.2553L1333.66 68.4559C1329.35 65.8261 1331.21 59.1864 1336.27 59.1864H1347.92C1354.12 59.1864 1359.67 55.3796 1361.91 49.6039L1366.84 36.8826C1368.49 32.6236 1374.51 32.6236 1376.16 36.8826Z" fill="#FFFB07" stroke="black" stroke-width="10"/>
<path d="M472.163 36.8826L477.09 49.6039C479.326 55.3796 484.883 59.1864 491.077 59.1864H502.733C507.786 59.1864 509.65 65.8261 505.336 68.4559L499.102 72.2553C492.902 76.0341 490.299 83.7106 492.921 90.4811L495.977 98.3715C497.703 102.828 492.793 106.934 488.713 104.447L475.307 96.2757C470.512 93.3535 464.488 93.3535 459.693 96.2757L446.287 104.447C442.207 106.934 437.297 102.828 439.023 98.3715L442.079 90.4811C444.701 83.7106 442.098 76.0341 435.898 72.2553L429.664 68.4559C425.35 65.8261 427.214 59.1864 432.267 59.1864H443.923C450.117 59.1864 455.674 55.3796 457.91 49.6039L462.837 36.8826C464.487 32.6236 470.513 32.6236 472.163 36.8826Z" fill="#FFFB07" stroke="black" stroke-width="10"/>
<path d="M698.163 36.8826L703.09 49.6039C705.326 55.3796 710.883 59.1864 717.077 59.1864H728.733C733.786 59.1864 735.65 65.8261 731.336 68.4559L725.102 72.2553C718.902 76.0341 716.299 83.7106 718.921 90.4811L721.977 98.3715C723.703 102.828 718.793 106.934 714.713 104.447L701.307 96.2757C696.512 93.3535 690.488 93.3535 685.693 96.2757L672.287 104.447C668.207 106.934 663.297 102.828 665.023 98.3715L668.079 90.4811C670.701 83.7106 668.098 76.0341 661.898 72.2553L655.664 68.4559C651.35 65.8261 653.214 59.1864 658.267 59.1864H669.923C676.117 59.1864 681.674 55.3796 683.91 49.6039L688.837 36.8826C690.487 32.6236 696.513 32.6236 698.163 36.8826Z" fill="#FFFB07" stroke="black" stroke-width="10"/>
<path d="M924.163 36.8826L929.09 49.6039C931.326 55.3796 936.883 59.1864 943.077 59.1864H954.733C959.786 59.1864 961.65 65.8261 957.336 68.4559L951.102 72.2553C944.902 76.0341 942.299 83.7106 944.921 90.4811L947.977 98.3715C949.703 102.828 944.793 106.934 940.713 104.447L927.307 96.2757C922.512 93.3535 916.488 93.3535 911.693 96.2757L898.287 104.447C894.207 106.934 889.297 102.828 891.023 98.3715L894.079 90.4811C896.701 83.7106 894.098 76.0341 887.898 72.2553L881.664 68.4559C877.35 65.8261 879.214 59.1864 884.267 59.1864H895.923C902.117 59.1864 907.674 55.3796 909.91 49.6039L914.837 36.8826C916.487 32.6236 922.513 32.6236 924.163 36.8826Z" fill="#FFFB07" stroke="black" stroke-width="10"/>
<path d="M1150.16 36.8826L1155.09 49.6039C1157.33 55.3796 1162.88 59.1864 1169.08 59.1864H1180.73C1185.79 59.1864 1187.65 65.8261 1183.34 68.4559L1177.1 72.2553C1170.9 76.0341 1168.3 83.7106 1170.92 90.4811L1173.98 98.3715C1175.7 102.828 1170.79 106.934 1166.71 104.447L1153.31 96.2757C1148.51 93.3535 1142.49 93.3535 1137.69 96.2757L1124.29 104.447C1120.21 106.934 1115.3 102.828 1117.02 98.3715L1120.08 90.4811C1122.7 83.7106 1120.1 76.0341 1113.9 72.2553L1107.66 68.4559C1103.35 65.8261 1105.21 59.1864 1110.27 59.1864H1121.92C1128.12 59.1864 1133.67 55.3796 1135.91 49.6039L1140.84 36.8826C1142.49 32.6236 1148.51 32.6236 1150.16 36.8826Z" fill="#FFFB07" stroke="black" stroke-width="10"/>
<path d="M345.68 148.662L347.13 152.518C349.328 158.367 354.922 162.24 361.171 162.24H363.958C368.522 162.24 370.241 168.212 366.376 170.639C360.485 174.339 358.103 181.712 360.52 188.142C362.305 192.889 357.082 196.676 353.341 194.326L348.978 191.586C344.1 188.523 337.9 188.523 333.022 191.586L328.659 194.326C324.918 196.676 319.695 192.889 321.48 188.142C323.897 181.712 321.515 174.339 315.624 170.639C311.759 168.212 313.478 162.24 318.042 162.24H320.829C327.078 162.24 332.672 158.367 334.87 152.518L336.32 148.662C337.944 144.341 344.056 144.341 345.68 148.662Z" fill="#FFFB07" stroke="black" stroke-width="10"/>
<path d="M150.68 148.662L152.13 152.518C154.328 158.367 159.922 162.24 166.171 162.24H168.958C173.522 162.24 175.241 168.212 171.376 170.639C165.485 174.339 163.103 181.712 165.52 188.142C167.305 192.889 162.082 196.676 158.341 194.326L153.978 191.586C149.1 188.523 142.9 188.523 138.022 191.586L133.659 194.326C129.918 196.676 124.695 192.889 126.48 188.142C128.897 181.712 126.515 174.339 120.624 170.639C116.759 168.212 118.478 162.24 123.042 162.24H125.829C132.078 162.24 137.672 158.367 139.87 152.518L141.32 148.662C142.944 144.341 149.056 144.341 150.68 148.662Z" fill="#FFFB07" stroke="black" stroke-width="10"/>
<path d="M48.5 260.937L53.4895 273.918C54.9743 277.781 58.6852 280.33 62.8238 280.33H76.9318L67.0432 286.404C62.9379 288.925 61.2141 294.015 62.9426 298.513L67.0434 309.182L53.7336 301.007C50.5231 299.035 46.4769 299.035 43.2664 301.007L29.9566 309.182L34.0574 298.513C35.7859 294.015 34.0621 288.925 29.9568 286.404L20.0682 280.33H34.1763C38.3148 280.33 42.0257 277.781 43.5105 273.918L48.5 260.937Z" fill="#FFFB07" stroke="black" stroke-width="10"/>
<path d="M241.5 260.937L246.489 273.918C247.974 277.781 251.685 280.33 255.824 280.33H269.932L260.043 286.404C255.938 288.925 254.214 294.015 255.943 298.513L260.043 309.182L246.734 301.007C243.523 299.035 239.477 299.035 236.266 301.007L222.957 309.182L227.057 298.513C228.786 294.015 227.062 288.925 222.957 286.404L213.068 280.33H227.176C231.315 280.33 235.026 277.781 236.511 273.918L241.5 260.937Z" fill="#FFFB07" stroke="black" stroke-width="10"/>
<path d="M467.5 260.937L472.489 273.918C473.974 277.781 477.685 280.33 481.824 280.33H495.932L486.043 286.404C481.938 288.925 480.214 294.015 481.943 298.513L486.043 309.182L472.734 301.007C469.523 299.035 465.477 299.035 462.266 301.007L448.957 309.182L453.057 298.513C454.786 294.015 453.062 288.925 448.957 286.404L439.068 280.33H453.176C457.315 280.33 461.026 277.781 462.511 273.918L467.5 260.937Z" fill="#FFFB07" stroke="black" stroke-width="10"/>
<path d="M1145.5 260.937L1150.49 273.918C1151.97 277.781 1155.69 280.33 1159.82 280.33H1173.93L1164.04 286.404C1159.94 288.925 1158.21 294.015 1159.94 298.513L1164.04 309.182L1150.73 301.007C1147.52 299.035 1143.48 299.035 1140.27 301.007L1126.96 309.182L1131.06 298.513C1132.79 294.015 1131.06 288.925 1126.96 286.404L1117.07 280.33H1131.18C1135.31 280.33 1139.03 277.781 1140.51 273.918L1145.5 260.937Z" fill="#FFFB07" stroke="black" stroke-width="10"/>
<path d="M1371.5 260.937L1376.49 273.918C1377.97 277.781 1381.69 280.33 1385.82 280.33H1399.93L1390.04 286.404C1385.94 288.925 1384.21 294.015 1385.94 298.513L1390.04 309.182L1376.73 301.007C1373.52 299.035 1369.48 299.035 1366.27 301.007L1352.96 309.182L1357.06 298.513C1358.79 294.015 1357.06 288.925 1352.96 286.404L1343.07 280.33H1357.18C1361.31 280.33 1365.03 277.781 1366.51 273.918L1371.5 260.937Z" fill="#FFFB07" stroke="black" stroke-width="10"/>
<path d="M585.68 148.662L587.13 152.518C589.328 158.367 594.922 162.24 601.171 162.24H603.958C608.522 162.24 610.241 168.212 606.376 170.639C600.485 174.339 598.103 181.712 600.52 188.142C602.305 192.889 597.082 196.676 593.341 194.326L588.978 191.586C584.1 188.523 577.9 188.523 573.022 191.586L568.659 194.326C564.918 196.676 559.695 192.889 561.48 188.142C563.897 181.712 561.515 174.339 555.624 170.639C551.759 168.212 553.478 162.24 558.042 162.24H560.829C567.078 162.24 572.672 158.367 574.87 152.518L576.32 148.662C577.944 144.341 584.056 144.341 585.68 148.662Z" fill="#FFFB07" stroke="black" stroke-width="10"/>
<path d="M816.68 148.662L818.13 152.518C820.328 158.367 825.922 162.24 832.171 162.24H834.958C839.522 162.24 841.241 168.212 837.376 170.639C831.485 174.339 829.103 181.712 831.52 188.142C833.305 192.889 828.082 196.676 824.341 194.326L819.978 191.586C815.1 188.523 808.9 188.523 804.022 191.586L799.659 194.326C795.918 196.676 790.695 192.889 792.48 188.142C794.897 181.712 792.515 174.339 786.624 170.639C782.759 168.212 784.478 162.24 789.042 162.24H791.829C798.078 162.24 803.672 158.367 805.87 152.518L807.32 148.662C808.944 144.341 815.056 144.341 816.68 148.662Z" fill="#FFFB07" stroke="black" stroke-width="10"/>
<path d="M1037.68 148.662L1039.13 152.518C1041.33 158.367 1046.92 162.24 1053.17 162.24H1055.96C1060.52 162.24 1062.24 168.212 1058.38 170.639C1052.48 174.339 1050.1 181.712 1052.52 188.142C1054.3 192.889 1049.08 196.676 1045.34 194.326L1040.98 191.586C1036.1 188.523 1029.9 188.523 1025.02 191.586L1020.66 194.326C1016.92 196.676 1011.7 192.889 1013.48 188.142C1015.9 181.712 1013.52 174.339 1007.62 170.639C1003.76 168.212 1005.48 162.24 1010.04 162.24H1012.83C1019.08 162.24 1024.67 158.367 1026.87 152.518L1028.32 148.662C1029.94 144.341 1036.06 144.341 1037.68 148.662Z" fill="#FFFB07" stroke="black" stroke-width="10"/>
<path d="M1268.68 148.662L1270.13 152.518C1272.33 158.367 1277.92 162.24 1284.17 162.24H1286.96C1291.52 162.24 1293.24 168.212 1289.38 170.639C1283.48 174.339 1281.1 181.712 1283.52 188.142C1285.3 192.889 1280.08 196.676 1276.34 194.326L1271.98 191.586C1267.1 188.523 1260.9 188.523 1256.02 191.586L1251.66 194.326C1247.92 196.676 1242.7 192.889 1244.48 188.142C1246.9 181.712 1244.52 174.339 1238.62 170.639C1234.76 168.212 1236.48 162.24 1241.04 162.24H1243.83C1250.08 162.24 1255.67 158.367 1257.87 152.518L1259.32 148.662C1260.94 144.341 1267.06 144.341 1268.68 148.662Z" fill="#FFFB07" stroke="black" stroke-width="10"/>
<path d="M1508.68 148.662L1510.13 152.518C1512.33 158.367 1517.92 162.24 1524.17 162.24H1526.96C1531.52 162.24 1533.24 168.212 1529.38 170.639C1523.48 174.339 1521.1 181.712 1523.52 188.142C1525.3 192.889 1520.08 196.676 1516.34 194.326L1511.98 191.586C1507.1 188.523 1500.9 188.523 1496.02 191.586L1491.66 194.326C1487.92 196.676 1482.7 192.889 1484.48 188.142C1486.9 181.712 1484.52 174.339 1478.62 170.639C1474.76 168.212 1476.48 162.24 1481.04 162.24H1483.83C1490.08 162.24 1495.67 158.367 1497.87 152.518L1499.32 148.662C1500.94 144.341 1507.06 144.341 1508.68 148.662Z" fill="#FFFB07" stroke="black" stroke-width="10"/>
</g>
<rect x="10" y="10" width="1516" height="937" rx="10" stroke="black" stroke-width="20"/>
<defs>
<linearGradient id="paint0_linear_2083_302" x1="768" y1="0" x2="768" y2="957" gradientUnits="userSpaceOnUse">
<stop stop-color="#582489"/>
<stop offset="1" stop-color="#FF9B43"/>
</linearGradient>
<linearGradient id="paint1_linear_2083_302" x1="812" y1="573" x2="812" y2="1182" gradientUnits="userSpaceOnUse">
<stop stop-color="#F16C33"/>
<stop offset="0.5" stop-color="#2A5AC2"/>
<stop offset="1" stop-color="#006AFF"/>
</linearGradient>
<clipPath id="clip0_2083_302">
<rect width="1536" height="957" rx="20" fill="white"/>
</clipPath>
</defs>
</svg>
